<svg width="44" height="44" viewBox="0 0 44 44" fill="none" xmlns="http://www.w3.org/2000/svg">
<path d="M10.19 40.9922H23.94C24.9881 40.991 25.9929 40.5741 26.734 39.833C27.4751 39.0919 27.892 38.0871 27.8932 37.0391V32.3984H28.8393C28.9675 32.3985 29.0911 32.3507 29.186 32.2645C29.2809 32.1784 29.3403 32.0599 29.3526 31.9323L29.5244 30.1506C30.269 29.9529 30.9824 29.6527 31.6443 29.2585L33.0122 30.3914C33.1111 30.4732 33.237 30.5153 33.3652 30.5093C33.4935 30.5032 33.6149 30.4496 33.7056 30.3588L35.7495 28.3149C35.8403 28.2242 35.8939 28.1028 35.8999 27.9745C35.9059 27.8463 35.8639 27.7204 35.782 27.6215L34.6465 26.2505C35.0393 25.5886 35.3402 24.8763 35.5409 24.1333L37.2976 23.962C37.425 23.9495 37.5433 23.8901 37.6294 23.7952C37.7154 23.7003 37.7631 23.5768 37.7631 23.4487V20.5512C37.7631 20.423 37.7153 20.2994 37.6291 20.2045C37.5429 20.1096 37.4245 20.0502 37.2969 20.038L35.5152 19.8661C35.3175 19.1215 35.0173 18.4081 34.6232 17.7462L35.7559 16.3783C35.8375 16.2799 35.8795 16.1546 35.874 16.0269C35.8684 15.8992 35.8156 15.7782 35.7258 15.6872L33.7078 13.6434C33.6172 13.5515 33.4954 13.4969 33.3665 13.4905C33.2377 13.484 33.111 13.5261 33.0117 13.6085L31.6406 14.7439C30.9789 14.3511 30.2668 14.0502 29.5239 13.8495L29.352 12.0675C29.3397 11.94 29.2804 11.8217 29.1856 11.7356C29.0908 11.6494 28.9673 11.6017 28.8393 11.6016H27.8932V6.96094C27.892 5.91287 27.4751 4.90806 26.734 4.16696C25.9929 3.42586 24.9881 3.009 23.94 3.00781H10.19C9.14197 3.00902 8.13718 3.42589 7.39608 4.16699C6.65499 4.90808 6.23811 5.91287 6.23691 6.96094V37.0391C6.23811 38.0871 6.65499 39.0919 7.39608 39.833C8.13718 40.5741 9.14197 40.991 10.19 40.9922ZM28.533 14.3139C28.5435 14.4228 28.5883 14.5255 28.661 14.6072C28.7337 14.6889 28.8304 14.7453 28.9373 14.7684C29.8162 14.964 30.6524 15.317 31.4056 15.8103C31.4977 15.8697 31.6063 15.8982 31.7157 15.8917C31.8252 15.8852 31.9296 15.844 32.014 15.7741L33.3059 14.7039L34.6642 16.0797L33.5906 17.3766C33.5198 17.462 33.4785 17.5679 33.4728 17.6787C33.467 17.7894 33.4971 17.8991 33.5586 17.9914C34.0542 18.7404 34.4061 19.5753 34.5961 20.4531C34.6193 20.5599 34.6758 20.6566 34.7575 20.7292C34.8392 20.8018 34.9419 20.8466 35.0506 20.857L36.7318 21.0191V22.9806L35.0759 23.143C34.9672 23.1536 34.8647 23.1984 34.7831 23.271C34.7016 23.3435 34.6451 23.4402 34.622 23.5469C34.4265 24.4257 34.0736 25.262 33.5803 26.0152C33.5209 26.1073 33.4923 26.2159 33.4989 26.3253C33.5054 26.4347 33.5465 26.5391 33.6164 26.6235L34.6882 27.9177L33.3082 29.2977L32.014 28.226C31.9286 28.1553 31.8227 28.1139 31.7119 28.1082C31.6011 28.1025 31.4914 28.1326 31.3992 28.1941C30.65 28.6897 29.8152 29.0415 28.9373 29.2316C28.8305 29.2548 28.7338 29.3113 28.6612 29.393C28.5886 29.4747 28.5439 29.5774 28.5334 29.6862L28.371 31.3672H26.4101L26.248 29.6861C26.2375 29.5773 26.1928 29.4746 26.1202 29.3929C26.0476 29.3112 25.9509 29.2547 25.8441 29.2316C24.9652 29.036 24.129 28.683 23.3758 28.1897C23.2837 28.1303 23.175 28.1018 23.0656 28.1083C22.9562 28.1148 22.8517 28.156 22.7673 28.2259L21.4731 29.2976L20.0928 27.9177L21.1646 26.6234C21.2353 26.538 21.2766 26.4321 21.2824 26.3213C21.2881 26.2106 21.258 26.1009 21.1965 26.0086C20.7009 25.2596 20.349 24.4247 20.159 23.5469C20.1358 23.4401 20.0793 23.3434 19.9976 23.2708C19.9159 23.1982 19.8132 23.1534 19.7044 23.143L18.0233 22.9809V21.0195L19.7044 20.8575C19.8132 20.847 19.9159 20.8022 19.9976 20.7296C20.0793 20.657 20.1358 20.5604 20.159 20.4536C20.3545 19.5746 20.7074 18.7382 21.2008 17.9849C21.2602 17.8928 21.2887 17.7842 21.2822 17.6748C21.2757 17.5654 21.2346 17.461 21.1647 17.3766L20.0929 16.0823L21.4729 14.7024L22.7671 15.7741C22.8525 15.8448 22.9585 15.8861 23.0692 15.8919C23.18 15.8976 23.2897 15.8675 23.382 15.806C24.1311 15.3104 24.9659 14.9585 25.8438 14.7684C25.9506 14.7453 26.0473 14.6888 26.1199 14.6071C26.1925 14.5254 26.2373 14.4227 26.2477 14.3139L26.4101 12.6328H28.371L28.533 14.3139ZM10.19 4.03906H23.94C24.7147 4.03993 25.4574 4.34804 26.0052 4.89581C26.5529 5.44359 26.8611 6.18627 26.8619 6.96094V8.16406H25.6588C25.522 8.16406 25.3909 8.21839 25.2942 8.31509C25.1975 8.41178 25.1432 8.54294 25.1432 8.67969C25.1432 8.81644 25.1975 8.94759 25.2942 9.04429C25.3909 9.14099 25.522 9.19531 25.6588 9.19531H26.8619V11.6016H25.9417C25.8135 11.6016 25.6899 11.6493 25.5951 11.7355C25.5002 11.8217 25.4408 11.9401 25.4285 12.0677L25.2566 13.8494C24.5121 14.0471 23.7986 14.3473 23.1368 14.7415L21.7689 13.6086C21.67 13.5267 21.5441 13.4847 21.4159 13.4907C21.2876 13.4967 21.1662 13.5504 21.0754 13.6412L19.0315 15.6851C18.9408 15.7758 18.8871 15.8972 18.8811 16.0255C18.8751 16.1537 18.9172 16.2796 18.9991 16.3785L20.1345 17.7495C19.7417 18.4113 19.4408 19.1233 19.24 19.8662L17.4581 20.038C17.3305 20.0504 17.2121 20.1097 17.1259 20.2046C17.0397 20.2995 16.992 20.4231 16.992 20.5513V23.4488C16.992 23.577 17.0397 23.7006 17.1259 23.7955C17.2121 23.8904 17.3305 23.9498 17.4581 23.9621L19.2398 24.134C19.4376 24.8785 19.7378 25.592 20.132 26.2539L18.9991 27.6218C18.9173 27.7207 18.8752 27.8465 18.8812 27.9748C18.8872 28.103 18.9409 28.2244 19.0316 28.3152L21.0755 30.3591C21.1663 30.4499 21.2877 30.5035 21.4159 30.5096C21.5442 30.5156 21.6701 30.4735 21.769 30.3916L23.14 29.2562C23.8019 29.6489 24.5141 29.9497 25.257 30.1503L25.4289 31.9323C25.4412 32.0598 25.5005 32.1782 25.5953 32.2644C25.6901 32.3505 25.8136 32.3983 25.9417 32.3984H26.8619V33.7734H7.26816V9.19531H21.276C21.4127 9.19531 21.5439 9.14099 21.6406 9.04429C21.7373 8.94759 21.7916 8.81644 21.7916 8.67969C21.7916 8.54294 21.7373 8.41178 21.6406 8.31509C21.5439 8.21839 21.4127 8.16406 21.276 8.16406H7.26816V6.96094C7.26905 6.18628 7.57717 5.44361 8.12494 4.89584C8.6727 4.34807 9.41538 4.03995 10.19 4.03906ZM7.26816 34.8047H26.8619V37.0391C26.8611 37.8137 26.5529 38.5564 26.0052 39.1042C25.4574 39.652 24.7147 39.9601 23.94 39.9609H10.19C9.41538 39.96 8.6727 39.6519 8.12494 39.1042C7.57717 38.5564 7.26905 37.8137 7.26816 37.0391V34.8047Z" fill="#06CE92"/>
<path d="M22.9685 9.19531H23.9237C24.0605 9.19531 24.1916 9.14099 24.2883 9.04429C24.385 8.94759 24.4393 8.81644 24.4393 8.67969C24.4393 8.54294 24.385 8.41178 24.2883 8.31509C24.1916 8.21839 24.0605 8.16406 23.9237 8.16406H22.9685C22.8318 8.16406 22.7006 8.21839 22.6039 8.31509C22.5072 8.41178 22.4529 8.54294 22.4529 8.67969C22.4529 8.81644 22.5072 8.94759 22.6039 9.04429C22.7006 9.14099 22.8318 9.19531 22.9685 9.19531Z" fill="#06CE92"/>
<path d="M17.065 39.1875C17.422 39.1875 17.7709 39.0817 18.0677 38.8834C18.3645 38.6851 18.5958 38.4032 18.7324 38.0734C18.8689 37.7437 18.9047 37.3808 18.8351 37.0307C18.7654 36.6807 18.5935 36.3591 18.3411 36.1067C18.0888 35.8543 17.7672 35.6824 17.4171 35.6128C17.067 35.5432 16.7042 35.5789 16.3744 35.7155C16.0447 35.8521 15.7628 36.0834 15.5645 36.3802C15.3662 36.677 15.2604 37.0259 15.2604 37.3828C15.2609 37.8613 15.4512 38.32 15.7895 38.6583C16.1278 38.9967 16.5866 39.187 17.065 39.1875ZM17.065 36.6094C17.218 36.6094 17.3675 36.6547 17.4947 36.7397C17.6219 36.8247 17.7211 36.9455 17.7796 37.0868C17.8381 37.2282 17.8535 37.3837 17.8236 37.5337C17.7938 37.6837 17.7201 37.8215 17.6119 37.9297C17.5038 38.0379 17.366 38.1115 17.2159 38.1414C17.0659 38.1712 16.9104 38.1559 16.7691 38.0974C16.6277 38.0388 16.5069 37.9397 16.422 37.8125C16.337 37.6853 16.2916 37.5358 16.2916 37.3828C16.2918 37.1778 16.3734 36.9812 16.5184 36.8362C16.6634 36.6912 16.86 36.6096 17.065 36.6094Z" fill="#06CE92"/>
<path d="M21.2334 22C21.2334 23.2177 21.5945 24.4081 22.2711 25.4207C22.9476 26.4332 23.9092 27.2224 25.0343 27.6884C26.1594 28.1544 27.3974 28.2763 28.5917 28.0387C29.7861 27.8012 30.8832 27.2148 31.7442 26.3537C32.6053 25.4926 33.1917 24.3955 33.4293 23.2012C33.6669 22.0068 33.5449 20.7688 33.0789 19.6438C32.6129 18.5187 31.8237 17.5571 30.8112 16.8805C29.7987 16.204 28.6083 15.8429 27.3905 15.8429C25.7581 15.8447 24.1931 16.494 23.0388 17.6483C21.8846 18.8026 21.2353 20.3676 21.2334 22ZM27.3905 16.8741C28.4043 16.8741 29.3953 17.1748 30.2383 17.738C31.0812 18.3012 31.7382 19.1018 32.1262 20.0384C32.5141 20.975 32.6157 22.0057 32.4179 23C32.2201 23.9943 31.7319 24.9076 31.015 25.6245C30.2982 26.3413 29.3848 26.8295 28.3905 27.0273C27.3962 27.2251 26.3656 27.1236 25.429 26.7356C24.4923 26.3477 23.6918 25.6907 23.1285 24.8477C22.5653 24.0048 22.2647 23.0138 22.2647 22C22.2662 20.641 22.8067 19.3381 23.7677 18.3771C24.7286 17.4162 26.0315 16.8757 27.3905 16.8741Z" fill="#06CE92"/>
<path d="M26.3484 23.8366C26.4447 23.9306 26.574 23.9832 26.7086 23.9832C26.8432 23.9832 26.9725 23.9306 27.0688 23.8366L30.0753 20.9013C30.1242 20.8541 30.1634 20.7977 30.1904 20.7353C30.2175 20.6729 30.232 20.6058 30.233 20.5378C30.234 20.4699 30.2216 20.4024 30.1964 20.3392C30.1713 20.276 30.1339 20.2185 30.0864 20.1698C30.0389 20.1212 29.9822 20.0824 29.9197 20.0557C29.8571 20.0291 29.7899 20.015 29.7219 20.0144C29.654 20.0138 29.5865 20.0267 29.5235 20.0523C29.4605 20.0778 29.4032 20.1156 29.3549 20.1634L26.7086 22.7469L25.4 21.4694C25.302 21.3749 25.1705 21.323 25.0343 21.325C24.8981 21.3271 24.7683 21.383 24.6732 21.4804C24.578 21.5779 24.5253 21.709 24.5265 21.8452C24.5278 21.9814 24.5828 22.1116 24.6797 22.2073L26.3484 23.8366Z" fill="#09ECA8"/>
<path d="M15.3828 20.3672H14.6704C14.5336 20.3672 14.4025 20.4215 14.3058 20.5182C14.2091 20.6149 14.1548 20.7461 14.1548 20.8828C14.1548 21.0196 14.2091 21.1507 14.3058 21.2474C14.4025 21.3441 14.5336 21.3984 14.6704 21.3984H15.3828C15.5196 21.3984 15.6507 21.3441 15.7474 21.2474C15.8441 21.1507 15.8984 21.0196 15.8984 20.8828C15.8984 20.7461 15.8441 20.6149 15.7474 20.5182C15.6507 20.4215 15.5196 20.3672 15.3828 20.3672Z" fill="#06CE92"/>
<path d="M9.28125 21.3984H12.3902C12.527 21.3984 12.6581 21.3441 12.7548 21.2474C12.8515 21.1507 12.9058 21.0196 12.9058 20.8828C12.9058 20.7461 12.8515 20.6149 12.7548 20.5182C12.6581 20.4215 12.527 20.3672 12.3902 20.3672H9.28125C9.1445 20.3672 9.01335 20.4215 8.91665 20.5182C8.81995 20.6149 8.76562 20.7461 8.76562 20.8828C8.76562 21.0196 8.81995 21.1507 8.91665 21.2474C9.01335 21.3441 9.1445 21.3984 9.28125 21.3984Z" fill="#06CE92"/>
<path d="M15.3828 24.6641H12.0923C11.9555 24.6641 11.8244 24.7184 11.7277 24.8151C11.631 24.9118 11.5766 25.0429 11.5766 25.1797C11.5766 25.3164 11.631 25.4476 11.7277 25.5443C11.8244 25.641 11.9555 25.6953 12.0923 25.6953H15.3828C15.5196 25.6953 15.6507 25.641 15.7474 25.5443C15.8441 25.4476 15.8984 25.3164 15.8984 25.1797C15.8984 25.0429 15.8441 24.9118 15.7474 24.8151C15.6507 24.7184 15.5196 24.6641 15.3828 24.6641Z" fill="#06CE92"/>
<path d="M9.28125 25.6953H9.81209C9.94884 25.6953 10.08 25.641 10.1767 25.5443C10.2734 25.4476 10.3277 25.3164 10.3277 25.1797C10.3277 25.0429 10.2734 24.9118 10.1767 24.8151C10.08 24.7184 9.94884 24.6641 9.81209 24.6641H9.28125C9.1445 24.6641 9.01335 24.7184 8.91665 24.8151C8.81995 24.9118 8.76562 25.0429 8.76562 25.1797C8.76562 25.3164 8.81995 25.4476 8.91665 25.5443C9.01335 25.641 9.1445 25.6953 9.28125 25.6953Z" fill="#06CE92"/>
<path d="M15.0391 29.4766C15.0391 29.6133 15.0934 29.7445 15.1901 29.8412C15.2868 29.9379 15.4179 29.9922 15.5547 29.9922H17.9609C18.0977 29.9922 18.2288 29.9379 18.3255 29.8412C18.4222 29.7445 18.4766 29.6133 18.4766 29.4766C18.4766 29.3398 18.4222 29.2087 18.3255 29.112C18.2288 29.0153 18.0977 28.9609 17.9609 28.9609H15.5547C15.4179 28.9609 15.2868 29.0153 15.1901 29.112C15.0934 29.2087 15.0391 29.3398 15.0391 29.4766Z" fill="#06CE92"/>
<path d="M13.2496 28.9609H9.28125C9.1445 28.9609 9.01335 29.0153 8.91665 29.112C8.81995 29.2087 8.76562 29.3398 8.76562 29.4766C8.76562 29.6133 8.81995 29.7445 8.91665 29.8412C9.01335 29.9379 9.1445 29.9922 9.28125 29.9922H13.2496C13.3863 29.9922 13.5175 29.9379 13.6142 29.8412C13.7109 29.7445 13.7652 29.6133 13.7652 29.4766C13.7652 29.3398 13.7109 29.2087 13.6142 29.112C13.5175 29.0153 13.3863 28.9609 13.2496 28.9609Z" fill="#06CE92"/>
<path d="M12.9766 16.7578H16.2422C16.3789 16.7578 16.5101 16.7035 16.6068 16.6068C16.7035 16.5101 16.7578 16.3789 16.7578 16.2422C16.7578 16.1054 16.7035 15.9743 16.6068 15.8776C16.5101 15.7809 16.3789 15.7266 16.2422 15.7266H12.9766C12.8398 15.7266 12.7087 15.7809 12.612 15.8776C12.5153 15.9743 12.4609 16.1054 12.4609 16.2422C12.4609 16.3789 12.5153 16.5101 12.612 16.6068C12.7087 16.7035 12.8398 16.7578 12.9766 16.7578Z" fill="#06CE92"/>
<path d="M9.28125 16.7578H10.6715C10.8082 16.7578 10.9394 16.7035 11.0361 16.6068C11.1328 16.5101 11.1871 16.3789 11.1871 16.2422C11.1871 16.1054 11.1328 15.9743 11.0361 15.8776C10.9394 15.7809 10.8082 15.7266 10.6715 15.7266H9.28125C9.1445 15.7266 9.01335 15.7809 8.91665 15.8776C8.81995 15.9743 8.76562 16.1054 8.76562 16.2422C8.76562 16.3789 8.81995 16.5101 8.91665 16.6068C9.01335 16.7035 9.1445 16.7578 9.28125 16.7578Z" fill="#06CE92"/>
</svg>
