<?xml version="1.0" encoding="utf-8"?>
<!-- Generator: Adobe Illustrator 24.0.0, SVG Export Plug-In . SVG Version: 6.00 Build 0)  -->
<svg version="1.1" id="Layer_1" xmlns="http://www.w3.org/2000/svg" xmlns:xlink="http://www.w3.org/1999/xlink" x="0px" y="0px"
	 viewBox="0 0 44 44" style="enable-background:new 0 0 44 44;" xml:space="preserve">
<style type="text/css">
	.st0{fill:#FF0303;}
</style>
<path class="st0" d="M10.2,41h13.8c1,0,2.1-0.4,2.8-1.2c0.7-0.7,1.2-1.7,1.2-2.8v-4.6h0.9c0.1,0,0.3,0,0.3-0.1
	c0.1-0.1,0.2-0.2,0.2-0.3l0.2-1.8c0.7-0.2,1.5-0.5,2.1-0.9l1.4,1.1c0.1,0.1,0.2,0.1,0.4,0.1c0.1,0,0.2-0.1,0.3-0.2l2-2
	c0.1-0.1,0.1-0.2,0.2-0.3c0-0.1,0-0.3-0.1-0.4l-1.1-1.4c0.4-0.7,0.7-1.4,0.9-2.1l1.8-0.2c0.1,0,0.2-0.1,0.3-0.2
	c0.1-0.1,0.1-0.2,0.1-0.3v-2.9c0-0.1,0-0.3-0.1-0.3s-0.2-0.2-0.3-0.2l-1.8-0.2c-0.2-0.7-0.5-1.5-0.9-2.1l1.1-1.4
	c0.1-0.1,0.1-0.2,0.1-0.4c0-0.1-0.1-0.2-0.1-0.3l-2-2c-0.1-0.1-0.2-0.1-0.3-0.2c-0.1,0-0.3,0-0.4,0.1l-1.4,1.1
	c-0.7-0.4-1.4-0.7-2.1-0.9l-0.2-1.8c0-0.1-0.1-0.2-0.2-0.3c-0.1-0.1-0.2-0.1-0.3-0.1h-0.9V7c0-1-0.4-2.1-1.2-2.8C26,3.4,25,3,23.9,3
	H10.2c-1,0-2.1,0.4-2.8,1.2C6.7,4.9,6.2,5.9,6.2,7V37c0,1,0.4,2.1,1.2,2.8C8.1,40.6,9.1,41,10.2,41z M28.5,14.3
	c0,0.1,0.1,0.2,0.1,0.3c0.1,0.1,0.2,0.1,0.3,0.2c0.9,0.2,1.7,0.5,2.5,1c0.1,0.1,0.2,0.1,0.3,0.1c0.1,0,0.2,0,0.3-0.1l1.3-1.1
	l1.4,1.4l-1.1,1.3c-0.1,0.1-0.1,0.2-0.1,0.3c0,0.1,0,0.2,0.1,0.3c0.5,0.7,0.8,1.6,1,2.5c0,0.1,0.1,0.2,0.2,0.3s0.2,0.1,0.3,0.1
	l1.7,0.2v2l-1.7,0.2c-0.1,0-0.2,0.1-0.3,0.1c-0.1,0.1-0.1,0.2-0.2,0.3c-0.2,0.9-0.5,1.7-1,2.5c-0.1,0.1-0.1,0.2-0.1,0.3
	c0,0.1,0,0.2,0.1,0.3l1.1,1.3l-1.4,1.4L32,28.2c-0.1-0.1-0.2-0.1-0.3-0.1s-0.2,0-0.3,0.1c-0.7,0.5-1.6,0.8-2.5,1
	c-0.1,0-0.2,0.1-0.3,0.2c-0.1,0.1-0.1,0.2-0.1,0.3l-0.2,1.7h-2l-0.2-1.7c0-0.1-0.1-0.2-0.1-0.3c-0.1-0.1-0.2-0.1-0.3-0.2
	c-0.9-0.2-1.7-0.5-2.5-1c-0.1-0.1-0.2-0.1-0.3-0.1c-0.1,0-0.2,0-0.3,0.1l-1.3,1.1l-1.4-1.4l1.1-1.3c0.1-0.1,0.1-0.2,0.1-0.3
	c0-0.1,0-0.2-0.1-0.3c-0.5-0.7-0.8-1.6-1-2.5c0-0.1-0.1-0.2-0.2-0.3c-0.1-0.1-0.2-0.1-0.3-0.1L18,23v-2l1.7-0.2
	c0.1,0,0.2-0.1,0.3-0.1c0.1-0.1,0.1-0.2,0.2-0.3c0.2-0.9,0.5-1.7,1-2.5c0.1-0.1,0.1-0.2,0.1-0.3c0-0.1,0-0.2-0.1-0.3l-1.1-1.3
	l1.4-1.4l1.3,1.1c0.1,0.1,0.2,0.1,0.3,0.1c0.1,0,0.2,0,0.3-0.1c0.7-0.5,1.6-0.8,2.5-1c0.1,0,0.2-0.1,0.3-0.2
	c0.1-0.1,0.1-0.2,0.1-0.3l0.2-1.7h2L28.5,14.3z M10.2,4h13.8c0.8,0,1.5,0.3,2.1,0.9c0.5,0.5,0.9,1.3,0.9,2.1v1.2h-1.2
	c-0.1,0-0.3,0.1-0.4,0.2c-0.1,0.1-0.2,0.2-0.2,0.4c0,0.1,0.1,0.3,0.2,0.4c0.1,0.1,0.2,0.2,0.4,0.2h1.2v2.4h-0.9
	c-0.1,0-0.3,0-0.3,0.1c-0.1,0.1-0.2,0.2-0.2,0.3l-0.2,1.8c-0.7,0.2-1.5,0.5-2.1,0.9l-1.4-1.1c-0.1-0.1-0.2-0.1-0.4-0.1
	c-0.1,0-0.2,0.1-0.3,0.2l-2,2c-0.1,0.1-0.1,0.2-0.2,0.3c0,0.1,0,0.3,0.1,0.4l1.1,1.4c-0.4,0.7-0.7,1.4-0.9,2.1L17.5,20
	c-0.1,0-0.2,0.1-0.3,0.2C17,20.3,17,20.4,17,20.6v2.9c0,0.1,0,0.3,0.1,0.3c0.1,0.1,0.2,0.2,0.3,0.2l1.8,0.2c0.2,0.7,0.5,1.5,0.9,2.1
	L19,27.6c-0.1,0.1-0.1,0.2-0.1,0.4c0,0.1,0.1,0.2,0.2,0.3l2,2c0.1,0.1,0.2,0.1,0.3,0.2c0.1,0,0.3,0,0.4-0.1l1.4-1.1
	c0.7,0.4,1.4,0.7,2.1,0.9l0.2,1.8c0,0.1,0.1,0.2,0.2,0.3c0.1,0.1,0.2,0.1,0.3,0.1h0.9v1.4H7.3V9.2h14c0.1,0,0.3-0.1,0.4-0.2
	c0.1-0.1,0.2-0.2,0.2-0.4c0-0.1-0.1-0.3-0.2-0.4c-0.1-0.1-0.2-0.2-0.4-0.2h-14V7c0-0.8,0.3-1.5,0.9-2.1C8.7,4.3,9.4,4,10.2,4z
	 M7.3,34.8h19.6V37c0,0.8-0.3,1.5-0.9,2.1c-0.5,0.5-1.3,0.9-2.1,0.9H10.2c-0.8,0-1.5-0.3-2.1-0.9c-0.5-0.5-0.9-1.3-0.9-2.1V34.8z"/>
<path class="st0" d="M23,9.2h1c0.1,0,0.3-0.1,0.4-0.2c0.1-0.1,0.2-0.2,0.2-0.4c0-0.1-0.1-0.3-0.2-0.4c-0.1-0.1-0.2-0.2-0.4-0.2h-1
	c-0.1,0-0.3,0.1-0.4,0.2c-0.1,0.1-0.2,0.2-0.2,0.4c0,0.1,0.1,0.3,0.2,0.4C22.7,9.1,22.8,9.2,23,9.2z"/>
<path class="st0" d="M17.1,39.2c0.4,0,0.7-0.1,1-0.3c0.3-0.2,0.5-0.5,0.7-0.8c0.1-0.3,0.2-0.7,0.1-1c-0.1-0.4-0.2-0.7-0.5-0.9
	c-0.3-0.3-0.6-0.4-0.9-0.5c-0.4-0.1-0.7,0-1,0.1c-0.3,0.1-0.6,0.4-0.8,0.7c-0.2,0.3-0.3,0.6-0.3,1c0,0.5,0.2,0.9,0.5,1.3
	C16.1,39,16.6,39.2,17.1,39.2z M17.1,36.6c0.2,0,0.3,0,0.4,0.1c0.1,0.1,0.2,0.2,0.3,0.3c0.1,0.1,0.1,0.3,0,0.4
	c0,0.2-0.1,0.3-0.2,0.4c-0.1,0.1-0.2,0.2-0.4,0.2c-0.1,0-0.3,0-0.4,0c-0.1-0.1-0.3-0.2-0.3-0.3c-0.1-0.1-0.1-0.3-0.1-0.4
	c0-0.2,0.1-0.4,0.2-0.5S16.9,36.6,17.1,36.6z"/>
<path class="st0" d="M21.2,22c0,1.2,0.4,2.4,1,3.4c0.7,1,1.6,1.8,2.8,2.3c1.1,0.5,2.4,0.6,3.6,0.4c1.2-0.2,2.3-0.8,3.2-1.7
	c0.9-0.9,1.4-2,1.7-3.2c0.2-1.2,0.1-2.4-0.4-3.6c-0.5-1.1-1.3-2.1-2.3-2.8c-1-0.7-2.2-1-3.4-1c-1.6,0-3.2,0.7-4.4,1.8
	C21.9,18.8,21.2,20.4,21.2,22z M27.4,16.9c1,0,2,0.3,2.8,0.9c0.8,0.6,1.5,1.4,1.9,2.3c0.4,0.9,0.5,2,0.3,3s-0.7,1.9-1.4,2.6
	c-0.7,0.7-1.6,1.2-2.6,1.4c-1,0.2-2,0.1-3-0.3c-0.9-0.4-1.7-1-2.3-1.9C22.6,24,22.3,23,22.3,22c0-1.4,0.5-2.7,1.5-3.6
	C24.7,17.4,26,16.9,27.4,16.9z"/>
<path class="st0" d="M26.3,23.8c0.1,0.1,0.2,0.1,0.4,0.1c0.1,0,0.3-0.1,0.4-0.1l3-2.9c0,0,0.1-0.1,0.1-0.2c0-0.1,0-0.1,0-0.2
	c0-0.1,0-0.1,0-0.2c0-0.1-0.1-0.1-0.1-0.2c0,0-0.1-0.1-0.2-0.1c-0.1,0-0.1,0-0.2,0c-0.1,0-0.1,0-0.2,0c-0.1,0-0.1,0.1-0.2,0.1
	l-2.6,2.6l-1.3-1.3c-0.1-0.1-0.2-0.1-0.4-0.1c-0.1,0-0.3,0.1-0.4,0.2c-0.1,0.1-0.1,0.2-0.1,0.4c0,0.1,0.1,0.3,0.2,0.4L26.3,23.8z"/>
<path class="st0" d="M15.4,20.4h-0.7c-0.1,0-0.3,0.1-0.4,0.2c-0.1,0.1-0.2,0.2-0.2,0.4c0,0.1,0.1,0.3,0.2,0.4
	c0.1,0.1,0.2,0.2,0.4,0.2h0.7c0.1,0,0.3-0.1,0.4-0.2c0.1-0.1,0.2-0.2,0.2-0.4c0-0.1-0.1-0.3-0.2-0.4C15.7,20.4,15.5,20.4,15.4,20.4z
	"/>
<path class="st0" d="M9.3,21.4h3.1c0.1,0,0.3-0.1,0.4-0.2s0.2-0.2,0.2-0.4c0-0.1-0.1-0.3-0.2-0.4s-0.2-0.2-0.4-0.2H9.3
	c-0.1,0-0.3,0.1-0.4,0.2s-0.2,0.2-0.2,0.4c0,0.1,0.1,0.3,0.2,0.4S9.1,21.4,9.3,21.4z"/>
<path class="st0" d="M15.4,24.7h-3.3c-0.1,0-0.3,0.1-0.4,0.2c-0.1,0.1-0.2,0.2-0.2,0.4c0,0.1,0.1,0.3,0.2,0.4
	c0.1,0.1,0.2,0.2,0.4,0.2h3.3c0.1,0,0.3-0.1,0.4-0.2c0.1-0.1,0.2-0.2,0.2-0.4c0-0.1-0.1-0.3-0.2-0.4C15.7,24.7,15.5,24.7,15.4,24.7z
	"/>
<path class="st0" d="M9.3,25.7h0.5c0.1,0,0.3-0.1,0.4-0.2c0.1-0.1,0.2-0.2,0.2-0.4c0-0.1-0.1-0.3-0.2-0.4c-0.1-0.1-0.2-0.2-0.4-0.2
	H9.3c-0.1,0-0.3,0.1-0.4,0.2S8.8,25,8.8,25.2c0,0.1,0.1,0.3,0.2,0.4S9.1,25.7,9.3,25.7z"/>
<path class="st0" d="M15,29.5c0,0.1,0.1,0.3,0.2,0.4c0.1,0.1,0.2,0.2,0.4,0.2H18c0.1,0,0.3-0.1,0.4-0.2c0.1-0.1,0.2-0.2,0.2-0.4
	c0-0.1-0.1-0.3-0.2-0.4C18.2,29,18.1,29,18,29h-2.4c-0.1,0-0.3,0.1-0.4,0.2C15.1,29.2,15,29.3,15,29.5z"/>
<path class="st0" d="M13.2,29h-4C9.1,29,9,29,8.9,29.1c-0.1,0.1-0.2,0.2-0.2,0.4c0,0.1,0.1,0.3,0.2,0.4S9.1,30,9.3,30h4
	c0.1,0,0.3-0.1,0.4-0.2c0.1-0.1,0.2-0.2,0.2-0.4c0-0.1-0.1-0.3-0.2-0.4C13.5,29,13.4,29,13.2,29z"/>
<path class="st0" d="M13,16.8h3.3c0.1,0,0.3-0.1,0.4-0.2s0.2-0.2,0.2-0.4c0-0.1-0.1-0.3-0.2-0.4c-0.1-0.1-0.2-0.2-0.4-0.2H13
	c-0.1,0-0.3,0.1-0.4,0.2c-0.1,0.1-0.2,0.2-0.2,0.4c0,0.1,0.1,0.3,0.2,0.4C12.7,16.7,12.8,16.8,13,16.8z"/>
<path class="st0" d="M9.3,16.8h1.4c0.1,0,0.3-0.1,0.4-0.2c0.1-0.1,0.2-0.2,0.2-0.4c0-0.1-0.1-0.3-0.2-0.4c-0.1-0.1-0.2-0.2-0.4-0.2
	H9.3c-0.1,0-0.3,0.1-0.4,0.2c-0.1,0.1-0.2,0.2-0.2,0.4c0,0.1,0.1,0.3,0.2,0.4S9.1,16.8,9.3,16.8z"/>
</svg>
