<svg xmlns="http://www.w3.org/2000/svg" viewBox="0 0 645 410"><defs><style>.cls-1{fill:#fff;}.cls-2{fill:#ebf0ff;}.cls-3{fill:#36e7f7;}.cls-4{fill:#88f7ff;}.cls-5{fill:#0b246e;}.cls-12,.cls-13,.cls-6{fill:#194672;}.cls-7{fill:#d7ecfa;}.cls-8{fill:#eef8fc;}.cls-9{isolation:isolate;}.cls-10{fill:#ebebeb;}.cls-11{fill:#544438;}.cls-12{opacity:0.75;}.cls-13{opacity:0.65;}.cls-14{fill:#2877d3;}.cls-15,.cls-17{fill:none;stroke-miterlimit:10;}.cls-15{stroke:#0b246e;stroke-width:0.75px;}.cls-16{fill:#c68642;}.cls-17{stroke:#fff;stroke-linecap:round;stroke-width:4px;}</style></defs><title>pic</title><g id="Designed_by_Freepik" data-name="Designed by Freepik"><path class="cls-1" d="M56.29,267.19c48.48-66.88,100.46-71.16,90.47-189.4H583.59C654.4,186.94,741.43,418.18,523.12,470c-272.9,64.74-119-73.3-366.37,0C55.11,500.08-38.39,397.8,56.29,267.19Z" transform="translate(-17 -77.79)"/></g><g id="Objects"><polygon class="cls-2" points="451.33 143.05 330.71 73.53 330.71 69.43 451.33 138.95 451.33 143.05"/><polygon class="cls-2" points="322.28 125.44 201.67 55.93 201.67 51.83 322.28 121.34 322.28 125.44"/><polygon class="cls-2" points="493.5 80.09 364.24 5.52 364.24 1.42 493.5 75.99 493.5 80.09"/><polygon class="cls-2" points="410.25 40.6 364.24 14.06 364.24 9.96 410.25 36.49 410.25 40.6"/><polygon class="cls-2" points="302.47 48.38 256.47 21.85 256.47 17.75 302.47 44.28 302.47 48.38"/><polygon class="cls-2" points="231.69 45.88 194.41 24.35 194.41 20.25 231.69 41.78 231.69 45.88"/><polygon class="cls-2" points="427.95 104.28 277.16 17.23 277.16 13.13 427.95 100.18 427.95 104.28"/><path class="cls-3" d="M374.39,298.89l4.45,89.29a2.14,2.14,0,0,0,1,1.69h0a2.13,2.13,0,0,0,3.27-1.78l.76-88.64a2.11,2.11,0,0,0-1.86-2.12l-5.22-.66A2.12,2.12,0,0,0,374.39,298.89Z" transform="translate(-17 -77.79)"/><path class="cls-4" d="M383.06,297.33,381.16,389c0,1.82,4,1.4,5.45.33l.29-.22a2.2,2.2,0,0,0,.92-1.69l4.51-88.86a2.23,2.23,0,0,0-1.72-2.29l-4.81-1.13A2.23,2.23,0,0,0,383.06,297.33Z" transform="translate(-17 -77.79)"/><polygon class="cls-5" points="411.92 195.52 415.18 196.76 415.18 200.68 411.92 200.68 411.92 195.52"/><path class="cls-6" d="M333.92,323,188.26,238.44,272.37,194a18.71,18.71,0,0,1,18.16.35l139.79,81.13a3.78,3.78,0,0,1-.13,6.6l-78.1,41.32A18.73,18.73,0,0,1,333.92,323Z" transform="translate(-17 -77.79)"/><path class="cls-4" d="M333.92,318.61,188.25,234.07l84.11-44.5a18.73,18.73,0,0,1,18.17.35l139.78,81.13a3.78,3.78,0,0,1-.13,6.6L352.08,319A18.71,18.71,0,0,1,333.92,318.61Z" transform="translate(-17 -77.79)"/><polygon class="cls-7" points="325.11 185.09 325.1 186.96 300.14 201.47 300.15 199.59 325.11 185.09"/><polygon class="cls-7" points="300.15 199.59 300.14 201.47 244.9 169.57 244.91 167.7 300.15 199.59"/><polygon class="cls-8" points="325.11 185.09 300.15 199.59 244.91 167.7 269.87 153.19 325.11 185.09"/><g class="cls-9"><polygon class="cls-7" points="273.24 156.84 273.24 157.94 269.78 159.95 269.79 158.85 273.24 156.84"/><polygon class="cls-7" points="269.79 158.85 269.78 159.95 266.38 157.98 266.38 156.88 269.79 158.85"/><polygon class="cls-1" points="273.24 156.84 269.79 158.85 266.38 156.88 269.83 154.88 273.24 156.84"/></g><g class="cls-9"><polygon class="cls-7" points="277.61 159.37 277.61 160.47 274.15 162.47 274.16 161.38 277.61 159.37"/><polygon class="cls-7" points="274.16 161.38 274.15 162.47 270.75 160.51 270.75 159.41 274.16 161.38"/><polygon class="cls-1" points="277.61 159.37 274.16 161.38 270.75 159.41 274.2 157.4 277.61 159.37"/></g><g class="cls-9"><polygon class="cls-7" points="281.97 161.89 281.97 162.99 278.51 164.99 278.52 163.89 281.97 161.89"/><polygon class="cls-7" points="278.52 163.89 278.51 164.99 275.11 163.02 275.11 161.93 278.52 163.89"/><polygon class="cls-1" points="281.97 161.89 278.52 163.89 275.11 161.93 278.56 159.92 281.97 161.89"/></g><g class="cls-9"><polygon class="cls-7" points="286.33 164.41 286.33 165.5 282.88 167.51 282.88 166.41 286.33 164.41"/><polygon class="cls-7" points="282.88 166.41 282.88 167.51 279.47 165.54 279.47 164.44 282.88 166.41"/><polygon class="cls-1" points="286.33 164.41 282.88 166.41 279.47 164.44 282.93 162.44 286.33 164.41"/></g><g class="cls-9"><polygon class="cls-7" points="290.7 166.93 290.7 168.03 287.25 170.03 287.25 168.94 290.7 166.93"/><polygon class="cls-7" points="287.25 168.94 287.25 170.03 283.84 168.07 283.84 166.97 287.25 168.94"/><polygon class="cls-1" points="290.7 166.93 287.25 168.94 283.84 166.97 287.3 164.96 290.7 166.93"/></g><g class="cls-9"><polygon class="cls-7" points="295.07 169.45 295.06 170.54 291.61 172.55 291.61 171.45 295.07 169.45"/><polygon class="cls-7" points="291.61 171.45 291.61 172.55 288.2 170.59 288.21 169.49 291.61 171.45"/><polygon class="cls-1" points="295.07 169.45 291.61 171.45 288.21 169.49 291.66 167.48 295.07 169.45"/></g><g class="cls-9"><polygon class="cls-7" points="299.43 171.97 299.43 173.06 295.97 175.07 295.98 173.97 299.43 171.97"/><polygon class="cls-7" points="295.98 173.97 295.97 175.07 292.56 173.1 292.57 172 295.98 173.97"/><polygon class="cls-1" points="299.43 171.97 295.98 173.97 292.57 172 296.02 170 299.43 171.97"/></g><g class="cls-9"><polygon class="cls-7" points="303.8 174.49 303.8 175.59 300.34 177.59 300.35 176.5 303.8 174.49"/><polygon class="cls-7" points="300.35 176.5 300.34 177.59 296.93 175.62 296.93 174.52 300.35 176.5"/><polygon class="cls-1" points="303.8 174.49 300.35 176.5 296.93 174.52 300.38 172.52 303.8 174.49"/></g><g class="cls-9"><polygon class="cls-7" points="308.16 177.01 308.16 178.1 304.7 180.11 304.71 179.01 308.16 177.01"/><polygon class="cls-7" points="304.71 179.01 304.7 180.11 301.3 178.15 301.3 177.05 304.71 179.01"/><polygon class="cls-1" points="308.16 177.01 304.71 179.01 301.3 177.05 304.75 175.04 308.16 177.01"/></g><g class="cls-9"><polygon class="cls-7" points="312.52 179.53 312.52 180.62 309.07 182.63 309.07 181.53 312.52 179.53"/><polygon class="cls-7" points="309.07 181.53 309.07 182.63 305.66 180.66 305.66 179.56 309.07 181.53"/><polygon class="cls-1" points="312.52 179.53 309.07 181.53 305.66 179.56 309.12 177.56 312.52 179.53"/></g><g class="cls-9"><polygon class="cls-7" points="321.26 184.57 321.25 185.67 317.8 187.67 317.8 186.57 321.26 184.57"/><polygon class="cls-7" points="317.8 186.57 317.8 187.67 310.02 183.18 310.02 182.08 317.8 186.57"/><polygon class="cls-1" points="321.26 184.57 317.8 186.57 310.02 182.08 313.48 180.08 321.26 184.57"/></g><g class="cls-9"><polygon class="cls-7" points="273.21 161.93 273.2 163.02 269.75 165.03 269.75 163.93 273.21 161.93"/><polygon class="cls-7" points="269.75 163.93 269.75 165.03 261.97 160.54 261.98 159.44 269.75 163.93"/><polygon class="cls-1" points="273.21 161.93 269.75 163.93 261.98 159.44 265.43 157.44 273.21 161.93"/></g><g class="cls-9"><polygon class="cls-7" points="277.57 164.44 277.57 165.54 274.11 167.55 274.12 166.45 277.57 164.44"/><polygon class="cls-7" points="274.12 166.45 274.11 167.55 270.71 165.58 270.71 164.48 274.12 166.45"/><polygon class="cls-1" points="277.57 164.44 274.12 166.45 270.71 164.48 274.16 162.48 277.57 164.44"/></g><g class="cls-9"><polygon class="cls-7" points="281.93 166.96 281.93 168.06 278.48 170.07 278.48 168.97 281.93 166.96"/><polygon class="cls-7" points="278.48 168.97 278.48 170.07 275.07 168.1 275.07 167 278.48 168.97"/><polygon class="cls-1" points="281.93 166.96 278.48 168.97 275.07 167 278.52 165 281.93 166.96"/></g><g class="cls-9"><polygon class="cls-7" points="286.3 169.49 286.3 170.59 282.85 172.59 282.85 171.49 286.3 169.49"/><polygon class="cls-7" points="282.85 171.49 282.85 172.59 279.44 170.62 279.44 169.53 282.85 171.49"/><polygon class="cls-1" points="286.3 169.49 282.85 171.49 279.44 169.53 282.89 167.52 286.3 169.49"/></g><g class="cls-9"><polygon class="cls-7" points="290.66 172 290.66 173.1 287.21 175.11 287.21 174.01 290.66 172"/><polygon class="cls-7" points="287.21 174.01 287.21 175.11 283.8 173.14 283.8 172.04 287.21 174.01"/><polygon class="cls-1" points="290.66 172 287.21 174.01 283.8 172.04 287.26 170.04 290.66 172"/></g><g class="cls-9"><polygon class="cls-7" points="295.03 174.52 295.02 175.62 291.57 177.63 291.57 176.53 295.03 174.52"/><polygon class="cls-7" points="291.57 176.53 291.57 177.63 288.16 175.66 288.17 174.56 291.57 176.53"/><polygon class="cls-1" points="295.03 174.52 291.57 176.53 288.17 174.56 291.62 172.56 295.03 174.52"/></g><g class="cls-9"><polygon class="cls-7" points="299.4 177.05 299.39 178.15 295.94 180.15 295.94 179.05 299.4 177.05"/><polygon class="cls-7" points="295.94 179.05 295.94 180.15 292.52 178.18 292.53 177.08 295.94 179.05"/><polygon class="cls-1" points="299.4 177.05 295.94 179.05 292.53 177.08 295.98 175.07 299.4 177.05"/></g><g class="cls-9"><polygon class="cls-7" points="303.76 179.56 303.76 180.66 300.3 182.67 300.31 181.57 303.76 179.56"/><polygon class="cls-7" points="300.31 181.57 300.3 182.67 296.9 180.7 296.9 179.6 300.31 181.57"/><polygon class="cls-1" points="303.76 179.56 300.31 181.57 296.9 179.6 300.35 177.6 303.76 179.56"/></g><g class="cls-9"><polygon class="cls-7" points="308.12 182.08 308.12 183.18 304.67 185.19 304.67 184.09 308.12 182.08"/><polygon class="cls-7" points="304.67 184.09 304.67 185.19 301.26 183.22 301.26 182.12 304.67 184.09"/><polygon class="cls-1" points="308.12 182.08 304.67 184.09 301.26 182.12 304.71 180.12 308.12 182.08"/></g><g class="cls-9"><polygon class="cls-7" points="312.49 184.61 312.49 185.71 309.04 187.71 309.04 186.61 312.49 184.61"/><polygon class="cls-7" points="309.04 186.61 309.04 187.71 305.62 185.74 305.62 184.64 309.04 186.61"/><polygon class="cls-1" points="312.49 184.61 309.04 186.61 305.62 184.64 309.08 182.63 312.49 184.61"/></g><g class="cls-9"><polygon class="cls-7" points="316.85 187.13 316.85 188.22 313.4 190.23 313.4 189.13 316.85 187.13"/><polygon class="cls-7" points="313.4 189.13 313.4 190.23 309.99 188.26 309.99 187.16 313.4 189.13"/><polygon class="cls-1" points="316.85 187.13 313.4 189.13 309.99 187.16 313.45 185.16 316.85 187.13"/></g><g class="cls-9"><polygon class="cls-7" points="268.81 164.48 268.8 165.58 265.35 167.59 265.35 166.49 268.81 164.48"/><polygon class="cls-7" points="265.35 166.49 265.35 167.59 257.57 163.1 257.57 162 265.35 166.49"/><polygon class="cls-1" points="268.81 164.48 265.35 166.49 257.57 162 261.03 159.99 268.81 164.48"/></g><g class="cls-9"><polygon class="cls-7" points="273.17 167 273.16 168.1 269.71 170.11 269.71 169.01 273.17 167"/><polygon class="cls-7" points="269.71 169.01 269.71 170.11 266.3 168.14 266.31 167.04 269.71 169.01"/><polygon class="cls-1" points="273.17 167 269.71 169.01 266.31 167.04 269.76 165.03 273.17 167"/></g><g class="cls-9"><polygon class="cls-7" points="277.53 169.52 277.53 170.62 274.07 172.63 274.08 171.53 277.53 169.52"/><polygon class="cls-7" points="274.08 171.53 274.07 172.63 270.67 170.66 270.67 169.56 274.08 171.53"/><polygon class="cls-1" points="277.53 169.52 274.08 171.53 270.67 169.56 274.12 167.55 277.53 169.52"/></g><g class="cls-9"><polygon class="cls-7" points="281.9 172.04 281.9 173.14 278.44 175.15 278.45 174.05 281.9 172.04"/><polygon class="cls-7" points="278.45 174.05 278.44 175.15 275.04 173.18 275.04 172.08 278.45 174.05"/><polygon class="cls-1" points="281.9 172.04 278.45 174.05 275.04 172.08 278.49 170.08 281.9 172.04"/></g><g class="cls-9"><polygon class="cls-7" points="286.26 174.56 286.26 175.66 282.81 177.67 282.81 176.57 286.26 174.56"/><polygon class="cls-7" points="282.81 176.57 282.81 177.67 279.4 175.7 279.4 174.6 282.81 176.57"/><polygon class="cls-1" points="286.26 174.56 282.81 176.57 279.4 174.6 282.86 172.6 286.26 174.56"/></g><g class="cls-9"><polygon class="cls-7" points="290.62 177.08 290.62 178.18 287.17 180.19 287.17 179.09 290.62 177.08"/><polygon class="cls-7" points="287.17 179.09 287.17 180.19 283.76 178.22 283.76 177.12 287.17 179.09"/><polygon class="cls-1" points="290.62 177.08 287.17 179.09 283.76 177.12 287.22 175.11 290.62 177.08"/></g><g class="cls-9"><polygon class="cls-7" points="295 179.6 294.99 180.7 291.54 182.71 291.54 181.61 295 179.6"/><polygon class="cls-7" points="291.54 181.61 291.54 182.71 288.12 180.74 288.13 179.64 291.54 181.61"/><polygon class="cls-1" points="295 179.6 291.54 181.61 288.13 179.64 291.58 177.63 295 179.6"/></g><g class="cls-9"><polygon class="cls-7" points="299.36 182.12 299.35 183.22 295.9 185.23 295.9 184.13 299.36 182.12"/><polygon class="cls-7" points="295.9 184.13 295.9 185.23 292.49 183.26 292.5 182.16 295.9 184.13"/><polygon class="cls-1" points="299.36 182.12 295.9 184.13 292.5 182.16 295.95 180.16 299.36 182.12"/></g><g class="cls-9"><polygon class="cls-7" points="303.72 184.64 303.72 185.74 300.26 187.75 300.27 186.65 303.72 184.64"/><polygon class="cls-7" points="300.27 186.65 300.26 187.75 296.86 185.78 296.86 184.68 300.27 186.65"/><polygon class="cls-1" points="303.72 184.64 300.27 186.65 296.86 184.68 300.31 182.68 303.72 184.64"/></g><g class="cls-9"><polygon class="cls-7" points="312.45 189.68 312.45 190.78 309 192.79 309 191.69 312.45 189.68"/><polygon class="cls-7" points="309 191.69 309 192.79 301.22 188.3 301.22 187.2 309 191.69"/><polygon class="cls-1" points="312.45 189.68 309 191.69 301.22 187.2 304.67 185.19 312.45 189.68"/></g><g class="cls-9"><polygon class="cls-7" points="268.76 169.57 268.75 170.66 265.3 172.67 265.3 171.57 268.76 169.57"/><polygon class="cls-7" points="265.3 171.57 265.3 172.67 253.16 165.66 253.16 164.56 265.3 171.57"/><polygon class="cls-1" points="268.76 169.57 265.3 171.57 253.16 164.56 256.62 162.56 268.76 169.57"/></g><g class="cls-9"><polygon class="cls-7" points="273.12 172.08 273.12 173.18 269.66 175.19 269.67 174.09 273.12 172.08"/><polygon class="cls-7" points="269.67 174.09 269.66 175.19 266.26 173.22 266.26 172.12 269.67 174.09"/><polygon class="cls-1" points="273.12 172.08 269.67 174.09 266.26 172.12 269.71 170.12 273.12 172.08"/></g><g class="cls-9"><polygon class="cls-7" points="277.49 174.61 277.49 175.71 274.03 177.71 274.04 176.62 277.49 174.61"/><polygon class="cls-7" points="274.04 176.62 274.03 177.71 270.63 175.75 270.63 174.65 274.04 176.62"/><polygon class="cls-1" points="277.49 174.61 274.04 176.62 270.63 174.65 274.08 172.64 277.49 174.61"/></g><g class="cls-9"><polygon class="cls-7" points="281.85 177.13 281.85 178.22 278.39 180.23 278.4 179.13 281.85 177.13"/><polygon class="cls-7" points="278.4 179.13 278.39 180.23 274.99 178.26 274.99 177.17 278.4 179.13"/><polygon class="cls-1" points="281.85 177.13 278.4 179.13 274.99 177.17 278.44 175.16 281.85 177.13"/></g><g class="cls-9"><polygon class="cls-7" points="286.21 179.65 286.21 180.74 282.76 182.75 282.76 181.65 286.21 179.65"/><polygon class="cls-7" points="282.76 181.65 282.76 182.75 279.35 180.78 279.35 179.68 282.76 181.65"/><polygon class="cls-1" points="286.21 179.65 282.76 181.65 279.35 179.68 282.81 177.68 286.21 179.65"/></g><g class="cls-9"><polygon class="cls-7" points="290.58 182.17 290.58 183.27 287.13 185.27 287.13 184.18 290.58 182.17"/><polygon class="cls-7" points="287.13 184.18 287.13 185.27 283.71 183.3 283.72 182.2 287.13 184.18"/><polygon class="cls-1" points="290.58 182.17 287.13 184.18 283.72 182.2 287.17 180.2 290.58 182.17"/></g><g class="cls-9"><polygon class="cls-7" points="294.95 184.69 294.94 185.78 291.49 187.79 291.49 186.69 294.95 184.69"/><polygon class="cls-7" points="291.49 186.69 291.49 187.79 288.08 185.82 288.09 184.73 291.49 186.69"/><polygon class="cls-1" points="294.95 184.69 291.49 186.69 288.09 184.73 291.54 182.72 294.95 184.69"/></g><g class="cls-9"><polygon class="cls-7" points="299.31 187.21 299.31 188.3 295.85 190.31 295.86 189.21 299.31 187.21"/><polygon class="cls-7" points="295.86 189.21 295.85 190.31 292.44 188.34 292.45 187.25 295.86 189.21"/><polygon class="cls-1" points="299.31 187.21 295.86 189.21 292.45 187.25 295.9 185.24 299.31 187.21"/></g><g class="cls-9"><polygon class="cls-7" points="308.04 192.25 308.04 193.34 304.58 195.35 304.59 194.25 308.04 192.25"/><polygon class="cls-7" points="304.59 194.25 304.58 195.35 296.81 190.86 296.81 189.76 304.59 194.25"/><polygon class="cls-1" points="308.04 192.25 304.59 194.25 296.81 189.76 300.26 187.76 308.04 192.25"/></g><g class="cls-9"><polygon class="cls-7" points="255.62 167.08 255.62 168.18 252.17 170.19 252.17 169.09 255.62 167.08"/><polygon class="cls-7" points="252.17 169.09 252.17 170.19 248.76 168.22 248.76 167.12 252.17 169.09"/><polygon class="cls-1" points="255.62 167.08 252.17 169.09 248.76 167.12 252.22 165.12 255.62 167.08"/></g><g class="cls-9"><polygon class="cls-7" points="259.99 169.61 259.99 170.7 256.54 172.71 256.54 171.61 259.99 169.61"/><polygon class="cls-7" points="256.54 171.61 256.54 172.71 253.13 170.74 253.13 169.65 256.54 171.61"/><polygon class="cls-1" points="259.99 169.61 256.54 171.61 253.13 169.65 256.59 167.64 259.99 169.61"/></g><g class="cls-9"><polygon class="cls-7" points="264.36 172.12 264.35 173.22 260.9 175.23 260.9 174.13 264.36 172.12"/><polygon class="cls-7" points="260.9 174.13 260.9 175.23 257.49 173.26 257.49 172.16 260.9 174.13"/><polygon class="cls-1" points="264.36 172.12 260.9 174.13 257.49 172.16 260.95 170.16 264.36 172.12"/></g><g class="cls-9"><polygon class="cls-7" points="286.18 184.73 286.18 185.82 282.73 187.83 282.73 186.73 286.18 184.73"/><polygon class="cls-7" points="282.73 186.73 282.73 187.83 261.85 175.78 261.86 174.68 282.73 186.73"/><polygon class="cls-1" points="286.18 184.73 282.73 186.73 261.86 174.68 265.31 172.68 286.18 184.73"/></g><g class="cls-9"><polygon class="cls-7" points="290.54 187.25 290.54 188.34 287.09 190.35 287.09 189.25 290.54 187.25"/><polygon class="cls-7" points="287.09 189.25 287.09 190.35 283.68 188.38 283.68 187.28 287.09 189.25"/><polygon class="cls-1" points="290.54 187.25 287.09 189.25 283.68 187.28 287.14 185.28 290.54 187.25"/></g><g class="cls-9"><polygon class="cls-7" points="294.91 189.76 294.9 190.86 291.45 192.87 291.45 191.77 294.91 189.76"/><polygon class="cls-7" points="291.45 191.77 291.45 192.87 288.04 190.9 288.05 189.8 291.45 191.77"/><polygon class="cls-1" points="294.91 189.76 291.45 191.77 288.05 189.8 291.5 187.8 294.91 189.76"/></g><g class="cls-9"><polygon class="cls-7" points="303.64 194.81 303.64 195.9 300.18 197.91 300.19 196.81 303.64 194.81"/><polygon class="cls-7" points="300.19 196.81 300.18 197.91 292.4 193.42 292.41 192.32 300.19 196.81"/><polygon class="cls-1" points="303.64 194.81 300.19 196.81 292.41 192.32 295.86 190.31 303.64 194.81"/></g><ellipse class="cls-3" cx="337.65" cy="209.91" rx="11.78" ry="6.8"/><rect class="cls-3" x="325.86" y="190.21" width="23.57" height="19.7"/><ellipse class="cls-1" cx="337.65" cy="190.21" rx="11.78" ry="6.8"/><path class="cls-10" d="M363.61,269.47a6.11,6.11,0,0,1-2.19,1.75,16.29,16.29,0,0,1-13.26,0,6,6,0,0,1-2.18-1.75c-1.21-1.7-.49-3.69,2.18-5.05a16.29,16.29,0,0,1,13.26,0C364.09,265.78,364.81,267.77,363.61,269.47Z" transform="translate(-17 -77.79)"/><path class="cls-11" d="M363.61,269.47a6.11,6.11,0,0,1-2.19,1.75,16.29,16.29,0,0,1-13.26,0,6,6,0,0,1-2.18-1.75,6,6,0,0,1,2.18-1.76,16.37,16.37,0,0,1,13.26,0A6.12,6.12,0,0,1,363.61,269.47Z" transform="translate(-17 -77.79)"/><polygon class="cls-1" points="249.67 155.27 220.93 138.68 261.57 115.21 290.32 131.81 249.67 155.27"/><polygon class="cls-12" points="250.25 149.65 224.29 134.67 261 113.48 286.95 128.46 250.25 149.65"/><polygon class="cls-1" points="308.52 99.57 308.52 103.93 318.64 109.59 318.64 104.58 308.52 99.57"/><path class="cls-6" d="M328,251.11l-18.74-10.83a1.8,1.8,0,0,1,0-3.13l21.34-12.33,24.07,13.89-21.47,12.4A5.19,5.19,0,0,1,328,251.11Z" transform="translate(-17 -77.79)"/><path class="cls-6" d="M297.46,140.31l-2.74,1.85L297.39,210l87,53.23,2.49-1.67a1.4,1.4,0,0,0,.62-1.17V193.07a2.14,2.14,0,0,0-1.07-1.85l-88.21-50.94A.73.73,0,0,0,297.46,140.31Z" transform="translate(-17 -77.79)"/><path class="cls-3" d="M383.34,192.92a2.65,2.65,0,0,1,1.33,2.3v67.31a.78.78,0,0,1-1.18.68l-86.85-50.14a4.2,4.2,0,0,1-2.1-3.64V142.61a.56.56,0,0,1,.84-.48" transform="translate(-17 -77.79)"/><polygon class="cls-1" points="277.54 121.21 277.54 67.24 367.56 119.23 367.67 173.25 277.54 121.21"/><polygon class="cls-3" points="292.64 84.34 287.27 81.24 287.27 79.91 292.64 83.01 292.64 84.34"/><polygon class="cls-4" points="339.43 111.36 296.07 86.32 296.07 84.99 339.43 110.03 339.43 111.36"/><polygon class="cls-4" points="357.58 121.84 343.22 113.54 343.22 112.21 357.58 120.51 357.58 121.84"/><polygon class="cls-3" points="292.64 88.7 287.27 85.6 287.27 84.27 292.64 87.37 292.64 88.7"/><polygon class="cls-4" points="339.43 115.72 296.07 90.68 296.07 89.35 339.43 114.39 339.43 115.72"/><polygon class="cls-4" points="357.58 126.2 343.22 117.9 343.22 116.57 357.58 124.87 357.58 126.2"/><polygon class="cls-3" points="292.64 93.06 287.27 89.96 287.27 88.63 292.64 91.73 292.64 93.06"/><polygon class="cls-4" points="330.61 114.98 296.07 95.05 296.07 93.72 330.61 113.66 330.61 114.98"/><polygon class="cls-4" points="357.58 130.56 334.14 117.03 334.14 115.7 357.58 129.23 357.58 130.56"/><polygon class="cls-3" points="292.64 97.43 287.27 94.32 287.27 92.99 292.64 96.1 292.64 97.43"/><polygon class="cls-4" points="345.7 128.06 296.07 99.41 296.07 98.08 345.7 126.73 345.7 128.06"/><polygon class="cls-4" points="357.58 134.92 343.22 126.63 343.22 125.3 357.58 133.59 357.58 134.92"/><polygon class="cls-3" points="292.64 101.79 287.27 98.69 287.27 97.36 292.64 100.46 292.64 101.79"/><polygon class="cls-4" points="339.43 128.8 296.07 103.77 296.07 102.44 339.43 127.47 339.43 128.8"/><polygon class="cls-4" points="357.58 139.28 343.22 130.99 343.22 129.66 357.58 137.95 357.58 139.28"/><polygon class="cls-3" points="292.64 106.15 287.27 103.05 287.27 101.72 292.64 104.82 292.64 106.15"/><polygon class="cls-4" points="326.93 125.96 296.07 108.13 296.07 106.8 326.93 124.63 326.93 125.96"/><polygon class="cls-4" points="357.58 143.65 355.12 142.22 355.12 140.89 357.58 142.31 357.58 143.65"/><polygon class="cls-4" points="351.52 140.15 343.22 135.35 343.22 134.02 351.52 138.81 351.52 140.15"/><polygon class="cls-3" points="292.64 110.51 287.27 107.41 287.27 106.08 292.64 109.18 292.64 110.51"/><polygon class="cls-4" points="332.81 133.7 296.07 112.49 296.07 111.16 332.81 132.37 332.81 133.7"/><polygon class="cls-4" points="357.58 148.01 336.35 135.75 336.35 134.42 357.58 146.68 357.58 148.01"/><polygon class="cls-3" points="292.64 114.87 287.27 111.77 287.27 110.44 292.64 113.54 292.64 114.87"/><polygon class="cls-4" points="316.8 128.82 296.07 116.85 296.07 115.52 316.8 127.49 316.8 128.82"/><polygon class="cls-4" points="357.58 152.37 320.84 131.15 320.84 129.82 357.58 151.04 357.58 152.37"/><polygon class="cls-3" points="292.64 119.23 287.27 116.13 287.27 114.8 292.64 117.9 292.64 119.23"/><polygon class="cls-4" points="339.43 146.25 296.07 121.22 296.07 119.89 339.43 144.92 339.43 146.25"/><polygon class="cls-4" points="357.58 156.73 343.22 148.43 343.22 147.1 357.58 155.4 357.58 156.73"/><polygon class="cls-4" points="397.23 100.07 328.28 60.83 328.28 26.73 397.23 65.97 397.23 100.07"/><path class="cls-5" d="M363.61,123.62v17l-2.19-1.26V131.7l-7.68-4.44v7.66l-2.19-1.26v-17l2.19,1.27v7.5l7.68,4.43v-7.5Z" transform="translate(-17 -77.79)"/><path class="cls-5" d="M377.28,133.62l-4.67-2.7v14.89l-2.18-1.25V129.67L365.74,127v-2.11l11.54,6.66Z" transform="translate(-17 -77.79)"/><path class="cls-5" d="M394.88,141.68v17l-1.91-1.1v-12.1c0-.18,0-.37,0-.57l0-.6-4.9,7.55q-.25.43-.78.12l-.31-.18a1.73,1.73,0,0,1-.78-1l-5-13.3c0,.46.06.89.06,1.28v12.09l-1.92-1.1v-17l1.62.93a2.19,2.19,0,0,1,.45.33,1.64,1.64,0,0,1,.3.53l4.92,13c.1.26.18.53.27.81s.16.55.23.82a7.42,7.42,0,0,1,.5-1.06l4.83-7.38c.09-.15.19-.21.29-.19a1.5,1.5,0,0,1,.45.19Z" transform="translate(-17 -77.79)"/><path class="cls-5" d="M406.94,163.52v2.12l-8.42-4.87v-17L400.7,145v14.87Z" transform="translate(-17 -77.79)"/><polygon class="cls-6" points="247.82 95.58 194.41 65.75 194.41 31.64 247.82 61.48 247.82 95.58"/><path class="cls-3" d="M231.1,142.32a.92.92,0,0,1,.32.35l.86,1.59a3.14,3.14,0,0,1-2.2.63,7.35,7.35,0,0,1-3.12-1.13,12.29,12.29,0,0,1-2.9-2.31,14.91,14.91,0,0,1-2.21-3.06,16.32,16.32,0,0,1-1.42-3.57,14.91,14.91,0,0,1-.5-3.8,8.35,8.35,0,0,1,.53-3.21,3.75,3.75,0,0,1,1.48-1.89,3.48,3.48,0,0,1,2.28-.47,7.39,7.39,0,0,1,2.94,1,12.43,12.43,0,0,1,2.78,2.2,16.83,16.83,0,0,1,2.13,2.8l-.72.76a.29.29,0,0,1-.18.11.43.43,0,0,1-.28-.08,1.69,1.69,0,0,1-.46-.49q-.26-.37-.69-.9a10.46,10.46,0,0,0-1.05-1.11,8,8,0,0,0-1.56-1.12,5.13,5.13,0,0,0-2-.72,2.38,2.38,0,0,0-1.58.37,2.87,2.87,0,0,0-1,1.46,7.31,7.31,0,0,0-.37,2.53,11.8,11.8,0,0,0,1.43,5.63,10.54,10.54,0,0,0,1.57,2.18,8.53,8.53,0,0,0,1.94,1.56,8.09,8.09,0,0,0,1.15.57,4.56,4.56,0,0,0,.93.28,2.68,2.68,0,0,0,.8,0,2.51,2.51,0,0,0,.75-.23.39.39,0,0,1,.18,0A.38.38,0,0,1,231.1,142.32Z" transform="translate(-17 -77.79)"/><path class="cls-3" d="M242.1,138.09a.43.43,0,0,1-.22.17.36.36,0,0,1-.28-.07,1.37,1.37,0,0,1-.42-.44l-.59-.78a11.41,11.41,0,0,0-.85-.92,6.14,6.14,0,0,0-1.18-.88,3.58,3.58,0,0,0-1.13-.46,1.41,1.41,0,0,0-.81.07.94.94,0,0,0-.5.5,2.14,2.14,0,0,0-.17.89,3,3,0,0,0,.3,1.31,6,6,0,0,0,.8,1.23,13.48,13.48,0,0,0,1.11,1.2l1.29,1.23c.43.43.86.87,1.28,1.33a10,10,0,0,1,1.11,1.48,7.71,7.71,0,0,1,.8,1.69,6.13,6.13,0,0,1,.3,2,5,5,0,0,1-.33,1.92,2.35,2.35,0,0,1-1,1.16,2.53,2.53,0,0,1-1.56.25,5.87,5.87,0,0,1-2.11-.8,10.19,10.19,0,0,1-1.37-1,12.83,12.83,0,0,1-1.26-1.18,14.45,14.45,0,0,1-1.12-1.34,16.15,16.15,0,0,1-.93-1.45l.63-.85a.36.36,0,0,1,.22-.11.43.43,0,0,1,.29.08,1.66,1.66,0,0,1,.5.54c.19.28.42.61.7,1a10.74,10.74,0,0,0,1,1.15,6.87,6.87,0,0,0,1.41,1.07,3.83,3.83,0,0,0,1.21.49,1.47,1.47,0,0,0,.9-.07,1.2,1.2,0,0,0,.56-.61,2.66,2.66,0,0,0,.19-1.09,3.24,3.24,0,0,0-.3-1.39,5.45,5.45,0,0,0-.79-1.25,12.16,12.16,0,0,0-1.11-1.19c-.42-.39-.85-.79-1.28-1.21s-.87-.85-1.29-1.3A10.78,10.78,0,0,1,235,139a7.73,7.73,0,0,1-.79-1.75,6.83,6.83,0,0,1-.3-2.08,3.73,3.73,0,0,1,.31-1.59,2,2,0,0,1,.89-1,2.44,2.44,0,0,1,1.46-.21,5.06,5.06,0,0,1,2,.74,10.43,10.43,0,0,1,2.28,1.77,11.86,11.86,0,0,1,1.81,2.35Z" transform="translate(-17 -77.79)"/><path class="cls-3" d="M253.25,144.53a.45.45,0,0,1-.21.17.39.39,0,0,1-.29-.07,1.62,1.62,0,0,1-.42-.44c-.16-.22-.35-.48-.59-.78a9.94,9.94,0,0,0-.85-.92,5.68,5.68,0,0,0-1.17-.88,3.62,3.62,0,0,0-1.14-.46,1.42,1.42,0,0,0-.81.06,1,1,0,0,0-.5.51,2.14,2.14,0,0,0-.17.89,3,3,0,0,0,.3,1.31,6.45,6.45,0,0,0,.8,1.23,13.65,13.65,0,0,0,1.12,1.2l1.28,1.23c.44.42.86.87,1.28,1.33a10.09,10.09,0,0,1,1.12,1.48,8.16,8.16,0,0,1,.79,1.69,6.13,6.13,0,0,1,.3,1.95,5,5,0,0,1-.33,1.92,2.32,2.32,0,0,1-1,1.15,2.45,2.45,0,0,1-1.56.26,5.94,5.94,0,0,1-2.11-.8,10.19,10.19,0,0,1-1.37-.95,13.72,13.72,0,0,1-2.37-2.52,12.67,12.67,0,0,1-.93-1.45l.62-.85a.39.39,0,0,1,.22-.11.51.51,0,0,1,.3.07,2,2,0,0,1,.49.55c.19.28.42.61.7,1a13.64,13.64,0,0,0,1,1.15,6.87,6.87,0,0,0,1.41,1.07,4.09,4.09,0,0,0,1.21.49,1.46,1.46,0,0,0,.9-.07,1.2,1.2,0,0,0,.56-.61,2.66,2.66,0,0,0,.19-1.09,3.39,3.39,0,0,0-.29-1.39,6.22,6.22,0,0,0-.79-1.25,11.24,11.24,0,0,0-1.12-1.19l-1.28-1.21c-.44-.41-.87-.85-1.28-1.3a10.09,10.09,0,0,1-1.12-1.48,7.73,7.73,0,0,1-.79-1.75,6.83,6.83,0,0,1-.3-2.08,3.89,3.89,0,0,1,.31-1.59,2,2,0,0,1,.9-1,2.4,2.4,0,0,1,1.45-.21,5.15,5.15,0,0,1,2,.74,10.6,10.6,0,0,1,2.28,1.77,12.67,12.67,0,0,1,1.81,2.35Z" transform="translate(-17 -77.79)"/><polygon class="cls-13" points="465.32 205.22 411.92 175.39 411.92 141.28 465.32 171.12 465.32 205.22"/><path class="cls-4" d="M441.65,234.16a13,13,0,0,1,2.46,1.8,10.69,10.69,0,0,1,1.73,2.07,8.61,8.61,0,0,1,1,2.26,8.8,8.8,0,0,1,.33,2.37,4.82,4.82,0,0,1-.36,2,2.08,2.08,0,0,1-1.05,1.11,2.76,2.76,0,0,1-1.74.12,8.15,8.15,0,0,1-2.39-1l-2.28-1.32v6.26l-2.18-1.26v-17Zm0,8.75a4.74,4.74,0,0,0,1.46.59,1.63,1.63,0,0,0,1.05-.09,1.31,1.31,0,0,0,.64-.72,3.2,3.2,0,0,0,.22-1.28,5.49,5.49,0,0,0-.84-2.92,6.88,6.88,0,0,0-2.53-2.35l-2.28-1.32v6.77Z" transform="translate(-17 -77.79)"/><path class="cls-4" d="M461.65,245.71v17l-2.19-1.26v-7.66l-7.67-4.43V257l-2.2-1.27v-17l2.2,1.26v7.51l7.67,4.43v-7.5Z" transform="translate(-17 -77.79)"/><path class="cls-4" d="M469.74,250.38a13.25,13.25,0,0,1,2.46,1.8,11,11,0,0,1,1.74,2.07,9.21,9.21,0,0,1,1,2.27,8.69,8.69,0,0,1,.33,2.37,4.77,4.77,0,0,1-.36,2,2.18,2.18,0,0,1-1.05,1.12,2.84,2.84,0,0,1-1.74.11,7.93,7.93,0,0,1-2.4-1l-2.27-1.32v6.26l-2.18-1.26v-17Zm0,8.75a4.68,4.68,0,0,0,1.46.59,1.66,1.66,0,0,0,1.06-.09,1.34,1.34,0,0,0,.64-.72,3.2,3.2,0,0,0,.22-1.28,5.49,5.49,0,0,0-.84-2.92,6.92,6.92,0,0,0-2.54-2.35L467.47,251v6.77Z" transform="translate(-17 -77.79)"/><polygon class="cls-6" points="495.97 91.14 459.27 70.6 459.27 36.49 495.97 57.04 495.97 91.14"/><path class="cls-1" d="M491,142.1a7.65,7.65,0,0,1-.31,2.37,2.7,2.7,0,0,1-.9,1.41,2,2,0,0,1-1.46.36,5.18,5.18,0,0,1-2-.74,13.94,13.94,0,0,1-2.11-1.55l.12-1.42c0-.14.06-.23.14-.27s.2,0,.36.07a3,3,0,0,1,.47.37,4.25,4.25,0,0,0,.8.56,3.35,3.35,0,0,0,1.16.45,1.14,1.14,0,0,0,.86-.21,1.77,1.77,0,0,0,.53-.92,7,7,0,0,0,.17-1.69V129.76L491,131Z" transform="translate(-17 -77.79)"/><path class="cls-1" d="M502.13,140.2a.43.43,0,0,1-.22.17.41.41,0,0,1-.28-.07,1.37,1.37,0,0,1-.42-.44l-.59-.78a10,10,0,0,0-.85-.93,5.73,5.73,0,0,0-1.18-.87,3.67,3.67,0,0,0-1.13-.46,1.33,1.33,0,0,0-.81.06,1,1,0,0,0-.5.51,2.11,2.11,0,0,0-.17.89,3,3,0,0,0,.3,1.31,6.29,6.29,0,0,0,.8,1.23,13.48,13.48,0,0,0,1.11,1.2l1.28,1.23c.44.42.87.86,1.29,1.33a11.33,11.33,0,0,1,1.11,1.47,7.93,7.93,0,0,1,.8,1.69,6.24,6.24,0,0,1,.3,2,4.92,4.92,0,0,1-.33,1.91,2.35,2.35,0,0,1-1,1.16,2.43,2.43,0,0,1-1.57.25,5.67,5.67,0,0,1-2.1-.79,11.06,11.06,0,0,1-1.38-1,13.86,13.86,0,0,1-1.26-1.17c-.39-.43-.76-.87-1.11-1.34a16.29,16.29,0,0,1-.93-1.46l.63-.84a.36.36,0,0,1,.22-.11.43.43,0,0,1,.29.07,1.72,1.72,0,0,1,.5.55c.19.28.42.61.7,1a10.7,10.7,0,0,0,1,1.14,6.56,6.56,0,0,0,1.41,1.08,4,4,0,0,0,1.21.49,1.4,1.4,0,0,0,.9-.08,1.12,1.12,0,0,0,.55-.6,2.67,2.67,0,0,0,.2-1.1,3.28,3.28,0,0,0-.3-1.39,6.06,6.06,0,0,0-.79-1.25,13.52,13.52,0,0,0-1.11-1.19l-1.29-1.2c-.43-.42-.86-.85-1.28-1.3a10,10,0,0,1-1.11-1.48,7.49,7.49,0,0,1-.79-1.75,6.88,6.88,0,0,1-.3-2.08,3.73,3.73,0,0,1,.31-1.59,2,2,0,0,1,.89-1,2.5,2.5,0,0,1,1.45-.22,5.44,5.44,0,0,1,2,.74,10.48,10.48,0,0,1,2.28,1.78,11.58,11.58,0,0,1,1.81,2.35Z" transform="translate(-17 -77.79)"/><path class="cls-5" d="M194.28,418.1a7.26,7.26,0,0,1-3.29,5.69c-1.82,1-3.29.2-3.29-1.89a7.27,7.27,0,0,1,3.29-5.7C192.8,415.16,194.28,416,194.28,418.1Z" transform="translate(-17 -77.79)"/><path class="cls-5" d="M191.58,416.42a7.27,7.27,0,0,1-1.39,6.43c-1.41,1.55-3.07,1.19-3.71-.8a7.27,7.27,0,0,1,1.39-6.43C189.27,414.07,190.93,414.43,191.58,416.42Z" transform="translate(-17 -77.79)"/><path class="cls-6" d="M251.73,359.51s.34,11.06,1.87,15,5.28,3.57,8.17,3.23,10.22-5.6,13.79-9,11.06-2.76,17-11.18,0-12-1.87-12.15S279,353.07,271.25,350Z" transform="translate(-17 -77.79)"/><path class="cls-14" d="M177.68,303.73S241,282.88,253,291.49c11.25,8.05,9.43,32.27,18.21,58.48a2.87,2.87,0,0,1-.09,2.06c-1.35,3.08-6.31,11.43-19.59,9.26A388.51,388.51,0,0,1,239.2,322.1s-49.33,31.79-60.57,23.55S177.68,303.73,177.68,303.73Z" transform="translate(-17 -77.79)"/><polygon class="cls-6" points="134.82 316.5 176.44 309.17 172.66 340.15 176.44 341.09 183.77 309.17 222.56 325.13 224.69 322.84 187.79 305.38 215.7 292.61 212.63 291.19 181.7 301.75 165.33 291.19 161.14 292.14 175.97 304.44 135.76 313.42 134.82 316.5"/><path class="cls-6" d="M157.09,390a7.28,7.28,0,0,1-3.28,5.69c-1.82,1-3.29.2-3.29-1.9a7.25,7.25,0,0,1,3.29-5.69C155.62,387.09,157.09,387.94,157.09,390Z" transform="translate(-17 -77.79)"/><path class="cls-6" d="M158.57,390.89a7.25,7.25,0,0,1-3.28,5.69c-1.82,1.05-3.29.2-3.29-1.89a7.27,7.27,0,0,1,3.29-5.7C157.1,388,158.57,388.8,158.57,390.89Z" transform="translate(-17 -77.79)"/><path class="cls-6" d="M243.14,399.57a7.29,7.29,0,0,1-3.29,5.69c-1.82,1.05-3.29.2-3.29-1.9a7.26,7.26,0,0,1,3.29-5.69C241.66,396.62,243.14,397.47,243.14,399.57Z" transform="translate(-17 -77.79)"/><path class="cls-6" d="M241.3,398.36a7.28,7.28,0,0,1-3.28,5.69c-1.82,1.05-3.29.2-3.29-1.9a7.26,7.26,0,0,1,3.29-5.69C239.83,395.41,241.3,396.26,241.3,398.36Z" transform="translate(-17 -77.79)"/><rect class="cls-6" x="177.38" y="287.66" width="7.47" height="18.27"/><path class="cls-6" d="M282.55,369s.34,11.06,1.87,15,5.28,3.57,8.17,3.23,10.21-5.6,13.79-9,11.06-2.76,17-11.18,0-12-1.87-12.15-11.22,6.89-19,3.78Z" transform="translate(-17 -77.79)"/><path class="cls-14" d="M208.65,311.41S272,290.57,284,299.18c11.4,8.15,9.39,32.87,18.55,59.45,0,0-3.83,13-20,10.35a385.58,385.58,0,0,1-12.37-39.19s-49.33,31.79-60.57,23.54S208.65,311.41,208.65,311.41Z" transform="translate(-17 -77.79)"/><path class="cls-3" d="M260.45,338.48c-2.23,12.06-22.78,26.79-58.52,32.15-1.24.19-13.12,2.53-23.58.48,6.57-12.6,23.91-33.5,18.48-54.1C209.63,319,262.4,327.88,260.45,338.48Z" transform="translate(-17 -77.79)"/><path class="cls-14" d="M196.75,319.71l7.6,7.81c1.79,10.77,8.29,21.28,18.23,22.08l50.87-17.39V314.52Z" transform="translate(-17 -77.79)"/><path class="cls-6" d="M213.93,240.71l-26.38-13.36a18.89,18.89,0,0,0-8.75-2.08c-5.57.07-13.66,1.93-16.83,11.43-5,15.11,11.28,76.53,11.28,76.53s16.38,20.27,29.34,19.31,31.59-11.87,31.59-21c0-6.5-5-37.11-7.93-54.12A23.07,23.07,0,0,0,213.93,240.71Z" transform="translate(-17 -77.79)"/><path class="cls-15" d="M226.32,201.91c.15,0,3.38.77,5.09,1.18a.89.89,0,0,1,.6,1.23l-1.09,2.46a2.34,2.34,0,0,1-2.13,1.38H225" transform="translate(-17 -77.79)"/><path class="cls-16" d="M192,225.14l2.72-17.66L229,187.63V201a6.09,6.09,0,0,1-.42,2.23l-.66,1.71a5.66,5.66,0,0,0-.3,2.94l.26,1.49a6.09,6.09,0,0,1-.39,3.4l-3.08,7.32a5.69,5.69,0,0,1-5.91,3.44l-4.86-.58-2,10.87Z" transform="translate(-17 -77.79)"/><path class="cls-6" d="M193.88,217.05l6,1.22a10,10,0,0,0,8.57-2.3l8.13-7.2v2l1.3-.25a3.21,3.21,0,0,0,2.47-2.22l3.13-10.35s8.76-.74,11.35-11.47c0,0-9.62-9.5-23.43-8.51a22.8,22.8,0,0,0-18.87,12.45s-3-.37-4.32,3.33c-1.1,3,2,16.13,3.28,21.06A3.09,3.09,0,0,0,193.88,217.05Z" transform="translate(-17 -77.79)"/><path class="cls-16" d="M216.14,213.23l1.09-5.64s-1.14-2.75-3.79-1.66-1.51,8,0,8.2A3.7,3.7,0,0,0,216.14,213.23Z" transform="translate(-17 -77.79)"/><polygon class="cls-3" points="200.23 129.8 214.48 128.95 215.38 126.69 199.19 128.45 200.23 129.8"/><path class="cls-3" d="M206.67,341.51c2,20.14-18.45,35.43-37,27.44-17.33-7.44-30-24-33.81-52.52-4.21-31.8,1.47-51.91,5.64-61.7a11.52,11.52,0,0,1,12.15-6.81c39.92,5.57,49.89,71.16,49.89,71.16S205.51,329.51,206.67,341.51Z" transform="translate(-17 -77.79)"/><path class="cls-16" d="M241.57,249.52s4.83-9.48,6.32-10.41,13.74-1.3,14.86-1.48,3.34,2.23,3.34,2.23,6.32-.19,7.06,0,.56,3.7-1.12,3.71a23.31,23.31,0,0,0-4.87,1l-3.86,5s-6.5,4.27-7.61,4.27-8.92,1.49-8.92,1.49Z" transform="translate(-17 -77.79)"/><path class="cls-16" d="M283.73,263s4.83-9.48,6.32-10.41,13.74-1.3,14.86-1.48,3.34,2.23,3.34,2.23l2.37,1.47a2.46,2.46,0,0,1,.11,4.1c-2.48,1.74-5.27,4.09-5.27,4.09s-6.5,4.27-7.61,4.27-8.92,1.48-8.92,1.48Z" transform="translate(-17 -77.79)"/><path class="cls-6" d="M202.59,268.34l42.85,24.22a15,15,0,0,0,15.69-.55l32.57-24s-1.59-8.14-7.89-10c-1.31-.38-29.32,9.79-29.32,9.79a5.76,5.76,0,0,1-5.72-.61l-32.54-23.66-15.64,21.19" transform="translate(-17 -77.79)"/><path class="cls-6" d="M211.23,253l31.49-7.29c6.46,0,7.41,9.23,7.41,9.23l-21.71,15.39Z" transform="translate(-17 -77.79)"/><path class="cls-6" d="M234.18,367.43a7.28,7.28,0,0,1-3.28,5.7c-1.82,1-3.29.2-3.29-1.9a7.23,7.23,0,0,1,3.29-5.69C232.71,364.49,234.18,365.34,234.18,367.43Z" transform="translate(-17 -77.79)"/><ellipse class="cls-6" cx="229.38" cy="368.46" rx="4.65" ry="2.68" transform="translate(-221.4 305.08) rotate(-60)"/><path class="cls-3" d="M252,344.7" transform="translate(-17 -77.79)"/><path class="cls-17" d="M260.45,338.48c-38.88,22.09-50.49,6-53.65-1.75a17.93,17.93,0,0,1-1.08-3.52s-7.89-40.92-18.46-59.79c-8.91-15.92-20.8-26.51-39.32-27.07" transform="translate(-17 -77.79)"/><polygon class="cls-14" points="175.29 144.5 170.55 149.56 196.93 162.92 195.09 153.19 175.29 144.5"/></g></svg>