<svg width="44" height="44" viewBox="0 0 44 44" fill="none" xmlns="http://www.w3.org/2000/svg">
<path d="M41.9777 24.111H41.2445V24.0666C41.2445 21.3754 39.5077 19.0836 37.0967 18.249C36.9412 16.5174 35.4826 15.1554 33.7111 15.1554H25.4001V5.46677C25.4001 4.73149 24.802 4.13336 24.0667 4.13336H19.9334C19.1981 4.13336 18.6 4.73149 18.6 5.46677V13.0445C18.6 13.4005 18.8885 13.689 19.2445 13.689C19.6005 13.689 19.889 13.4005 19.889 13.0445V5.46677C19.889 5.44228 19.9089 5.42242 19.9334 5.42242H24.0667C24.0912 5.42242 24.1111 5.44228 24.1111 5.46677V15.1555H10.289C8.51752 15.1555 7.05891 16.5175 6.90336 18.2491C4.49238 19.0836 2.75559 21.3754 2.75559 24.0667V24.1111H2.02237C0.907242 24.111 0 25.0182 0 26.1334V28.8889C0 30.004 0.907242 30.9111 2.02228 30.9111H2.7555V33.7111C2.7555 37.1053 5.51693 39.8667 8.91112 39.8667H35.0888C38.483 39.8667 41.2444 37.1053 41.2444 33.7111V30.9111H41.9776C43.0928 30.9111 43.9999 30.004 43.9999 28.8889V26.1334C44 25.0182 43.0928 24.111 41.9777 24.111ZM2.02228 29.6221C1.61795 29.6221 1.28906 29.2932 1.28906 28.8889V26.1334C1.28906 25.729 1.61803 25.4001 2.02228 25.4001H2.7555V29.6222H2.02228V29.6221ZM39.9554 33.7111C39.9554 36.3945 37.7723 38.5776 35.0889 38.5776H8.91112C6.22772 38.5776 4.04456 36.3945 4.04456 33.7111V24.0666C4.04456 21.3832 6.22772 19.2001 8.91112 19.2001H30.2668C30.6227 19.2001 30.9113 18.9115 30.9113 18.5556C30.9113 18.1996 30.6227 17.911 30.2668 17.911H8.91112C8.69404 17.911 8.47962 17.9226 8.26839 17.9447C8.53102 17.0777 9.33728 16.4445 10.289 16.4445H33.7111C34.6628 16.4445 35.4691 17.0776 35.7317 17.9447C35.5204 17.9227 35.306 17.911 35.089 17.911H33.0225C32.6666 17.911 32.378 18.1996 32.378 18.5556C32.378 18.9115 32.6666 19.2001 33.0225 19.2001H35.089C37.7724 19.2001 39.9555 21.3832 39.9555 24.0666V33.7111H39.9554ZM42.7109 28.8889C42.7109 29.2932 42.382 29.6221 41.9777 29.6221H41.2445V25.4001H41.9777C42.3821 25.4001 42.7109 25.729 42.7109 26.1333V28.8889Z" fill="#FEA217"/>
<path d="M8.22226 33.0665C7.10714 33.0665 6.19998 33.9738 6.19998 35.0888C6.19998 36.2039 7.10722 37.1111 8.22226 37.1111C9.3373 37.1111 10.2445 36.2039 10.2445 35.0888C10.2445 33.9738 9.33739 33.0665 8.22226 33.0665ZM8.22226 35.8221C7.81793 35.8221 7.48904 35.4931 7.48904 35.0889C7.48904 34.6846 7.81801 34.3557 8.22226 34.3557C8.62651 34.3557 8.95548 34.6846 8.95548 35.0889C8.95548 35.4931 8.6266 35.8221 8.22226 35.8221Z" fill="#FEA217"/>
<path d="M8.22226 20.6666C7.10714 20.6666 6.19998 21.5738 6.19998 22.6888C6.19998 23.8039 7.10722 24.7111 8.22226 24.7111C9.3373 24.7111 10.2445 23.8039 10.2445 22.6888C10.2445 21.5738 9.33739 20.6666 8.22226 20.6666ZM8.22226 23.4221C7.81793 23.4221 7.48904 23.0931 7.48904 22.6888C7.48904 22.2846 7.81801 21.9556 8.22226 21.9556C8.62651 21.9556 8.95548 22.2846 8.95548 22.6888C8.95548 23.0931 8.6266 23.4221 8.22226 23.4221Z" fill="#FEA217"/>
<path d="M35.7777 33.0665C34.6626 33.0665 33.7555 33.9738 33.7555 35.0888C33.7555 36.2039 34.6627 37.1111 35.7777 37.1111C36.8928 37.1111 37.8 36.2039 37.8 35.0888C37.8 33.9738 36.8928 33.0665 35.7777 33.0665ZM35.7777 35.8221C35.3734 35.8221 35.0445 35.4931 35.0445 35.0889C35.0445 34.6846 35.3735 34.3557 35.7777 34.3557C36.182 34.3557 36.511 34.6846 36.511 35.0889C36.511 35.4931 36.182 35.8221 35.7777 35.8221Z" fill="#FEA217"/>
<path d="M35.7777 20.6666C34.6626 20.6666 33.7555 21.5738 33.7555 22.6888C33.7555 23.8039 34.6627 24.7111 35.7777 24.7111C36.8928 24.7111 37.8 23.8039 37.8 22.6888C37.8 21.5738 36.8928 20.6666 35.7777 20.6666ZM35.7777 23.4221C35.3734 23.4221 35.0445 23.0931 35.0445 22.6888C35.0445 22.2846 35.3735 21.9556 35.7777 21.9556C36.182 21.9556 36.511 22.2846 36.511 22.6888C36.511 23.0931 36.182 23.4221 35.7777 23.4221Z" fill="#FEA217"/>
<path d="M20.8485 25.5298C20.5153 25.4047 20.1436 25.5737 20.0187 25.907L18.3141 30.4526C18.1914 30.78 17.8739 30.9999 17.5201 30.9999C17.1705 30.9999 16.853 30.78 16.7303 30.4526L15.0257 25.9071C14.9008 25.5737 14.5291 25.4049 14.1959 25.5299C13.8626 25.6548 13.6937 26.0263 13.8187 26.3597L15.5233 30.9053C15.8336 31.7329 16.6361 32.289 17.5244 32.289C18.4083 32.289 19.2108 31.7329 19.5211 30.9053L21.2257 26.3597C21.3507 26.0263 21.1818 25.6547 20.8485 25.5298Z" fill="#FEA217"/>
<path d="M29.5334 27.5111C29.5334 26.3959 28.6262 25.4888 27.5111 25.4888H23.3778C23.0218 25.4888 22.7332 25.7773 22.7332 26.1333V31.6444C22.7332 32.0004 23.0218 32.2889 23.3778 32.2889C23.7337 32.2889 24.0223 32.0004 24.0223 31.6444V26.7778H27.5111C27.9154 26.7778 28.2443 27.1068 28.2443 27.5111C28.2443 27.9154 27.9154 28.2443 27.5111 28.2443H26.1457C25.7681 28.2443 25.4304 28.4837 25.3054 28.8401C25.1805 29.1964 25.2946 29.5943 25.5895 29.8302L28.4862 32.1476C28.6051 32.2427 28.7472 32.289 28.8884 32.2889C29.0775 32.2889 29.2648 32.2062 29.3921 32.047C29.6144 31.7691 29.5694 31.3635 29.2915 31.141L27.2818 29.5333H27.511C28.6262 29.5333 29.5334 28.6261 29.5334 27.5111Z" fill="#FEA217"/>
</svg>
