<svg width="36" height="36" viewBox="0 0 36 36" fill="none" xmlns="http://www.w3.org/2000/svg">
<path d="M35.4375 12.4982L34.0785 12.159L34.7991 10.9586L33.75 9.909V0.5625H18V9.5625H16.6747C16.8019 9.01631 16.875 8.45269 16.875 7.875C16.875 3.843 13.5945 0.5625 9.5625 0.5625C5.5305 0.5625 2.25 3.843 2.25 7.89131C2.25 8.51625 2.33606 9.12712 2.48738 9.71663C1.36969 10.0941 0.5625 11.1499 0.5625 12.375V25.875C0.5625 27.4258 1.82419 28.6875 3.375 28.6875H10.6875V29.8125H8.57025C7.92675 29.8125 7.3485 30.1702 7.0605 30.7451L6.1875 32.4923V35.4375H21.9375V32.4923L21.0639 30.7457C20.7765 30.1702 20.1977 29.8125 19.5548 29.8125H17.4375V28.6875H24.75C26.3008 28.6875 27.5625 27.4258 27.5625 25.875V21.9375H30.2518L30.591 20.5791L31.7925 21.2991L34.7996 18.2914L34.0796 17.0904L35.4375 16.7518V12.4982ZM19.125 1.6875H32.625V8.78344L31.7925 7.95038L30.591 8.67094L30.2518 7.3125H25.9982L25.659 8.6715L24.4575 7.95094L22.8465 9.5625H19.125V1.6875ZM21.7215 10.6875L21.4509 10.9581L22.2531 12.2946L21.2265 12.9302L17.9989 12.9375L18.0011 14.0625L25.3434 14.0468L25.4767 13.6749C25.9526 12.3491 27.3161 11.5914 28.7145 11.8716C29.7838 12.0864 30.6512 12.9476 30.8739 14.0136C31.0517 14.868 30.8458 15.7365 30.3086 16.3974C29.7714 17.0584 28.9755 17.4375 28.125 17.4375C26.9347 17.4375 25.8688 16.6843 25.4728 15.5627L25.3401 15.1875H19.6875C18.7571 15.1875 18 15.9446 18 16.875V20.25C18 20.5605 17.748 20.8125 17.4375 20.8125C17.127 20.8125 16.875 20.5605 16.875 20.25V19.125C16.875 18.1946 16.1179 17.4375 15.1875 17.4375C14.2571 17.4375 13.5 18.1946 13.5 19.125V20.25C13.5 20.5605 13.248 20.8125 12.9375 20.8125H10.6875C10.377 20.8125 10.125 20.5605 10.125 20.25V19.6369C11.7186 19.368 12.9375 17.982 12.9375 16.3125V14.8579L14.733 13.0624C15.4237 12.3711 15.9592 11.5661 16.3226 10.6875H21.7215ZM7.3125 15.1875H11.8125V16.3125C11.8125 17.5534 10.8034 18.5625 9.5625 18.5625C8.32162 18.5625 7.3125 17.5534 7.3125 16.3125V15.1875ZM7.875 8.4375H6.75C6.12956 8.4375 5.625 7.93294 5.625 7.3125C5.625 6.69206 6.12956 6.1875 6.75 6.1875C7.37044 6.1875 7.875 6.69206 7.875 7.3125V8.4375ZM10.125 14.0625H9V9.5625H10.125V14.0625ZM9.5625 1.6875C12.9741 1.6875 15.75 4.46344 15.75 7.89131C15.75 9.54394 15.1059 11.0976 13.9376 12.2664L12.1421 14.0625H11.25V9.5625H12.375C13.6159 9.5625 14.625 8.55338 14.625 7.3125C14.625 6.07162 13.6159 5.0625 12.375 5.0625C11.1341 5.0625 10.125 6.07162 10.125 7.3125V8.4375H9V7.3125C9 6.07162 7.99088 5.0625 6.75 5.0625C5.50912 5.0625 4.5 6.07162 4.5 7.3125C4.5 8.55338 5.50912 9.5625 6.75 9.5625H7.875V14.0625H6.98287L5.18738 12.267C4.01906 11.0976 3.375 9.54394 3.375 7.875C3.375 4.46344 6.15094 1.6875 9.5625 1.6875ZM11.25 8.4375V7.3125C11.25 6.69206 11.7546 6.1875 12.375 6.1875C12.9954 6.1875 13.5 6.69206 13.5 7.3125C13.5 7.93294 12.9954 8.4375 12.375 8.4375H11.25ZM8.57025 30.9375H10.6875V32.0625H7.66012L8.06738 31.2486C8.163 31.0568 8.35537 30.9375 8.57025 30.9375ZM7.3125 34.3125V33.1875H20.8125V34.3125H7.3125ZM19.5548 30.9375C19.7696 30.9375 19.9626 31.0568 20.0582 31.2486L20.4649 32.0625H17.4375V30.9375H19.5548ZM16.3125 32.0625H11.8125V28.6875H16.3125V32.0625ZM24.75 27.5625H3.375C2.44463 27.5625 1.6875 26.8054 1.6875 25.875V24.1875H8.4375V24.75C8.4375 25.6804 9.19462 26.4375 10.125 26.4375H18C18.9304 26.4375 19.6875 25.6804 19.6875 24.75V24.1875H26.4375V25.875C26.4375 26.8054 25.6804 27.5625 24.75 27.5625ZM18.5625 24.1875V24.75C18.5625 25.0605 18.3105 25.3125 18 25.3125H16.3125V24.1875H18.5625ZM15.1875 25.3125H12.9375V24.1875H15.1875V25.3125ZM11.8125 25.3125H10.125C9.8145 25.3125 9.5625 25.0605 9.5625 24.75V24.1875H11.8125V25.3125ZM26.4375 23.0625H1.6875V12.375C1.6875 11.6392 2.17294 11.0048 2.84456 10.7792C3.20625 11.6201 3.72488 12.3953 4.39144 13.0624L6.1875 14.8579V16.3125C6.1875 17.9814 7.40644 19.3674 9 19.6369V20.25C9 21.1804 9.75712 21.9375 10.6875 21.9375H12.9375C13.8679 21.9375 14.625 21.1804 14.625 20.25V19.125C14.625 18.8145 14.877 18.5625 15.1875 18.5625C15.498 18.5625 15.75 18.8145 15.75 19.125V20.25C15.75 21.1804 16.5071 21.9375 17.4375 21.9375C18.3679 21.9375 19.125 21.1804 19.125 20.25V16.875C19.125 16.5651 19.377 16.3125 19.6875 16.3125H21.2153L22.2531 16.9549L21.4509 18.2914L24.4581 21.2991L25.6596 20.5791L25.9982 21.9375H26.4375V23.0625ZM34.3125 15.8732L33.2162 16.1471L32.9158 16.2608L32.6542 16.9031L33.3833 18.1181L31.6176 19.8838L30.4031 19.1548L29.7174 19.4338L29.3732 20.8125H26.8768L26.6034 19.7162L26.4898 19.4158L25.8469 19.1542L24.6324 19.8832L22.8668 18.1176L23.5958 16.9026L23.3533 16.3136L23.3516 16.3125H24.5661C25.2113 17.6732 26.5944 18.5625 28.1244 18.5625C29.3153 18.5625 30.4296 18.0321 31.1816 17.1073C31.9331 16.1826 32.2223 14.9715 31.9748 13.7841C31.662 12.2833 30.4408 11.0711 28.9361 10.7685C27.117 10.4023 25.3451 11.2995 24.5722 12.9234L23.3291 12.9262L23.3713 12.8925L23.5952 12.3469L22.8662 11.133L24.6319 9.36787L25.8463 10.0969L26.5326 9.81394L26.8768 8.4375H29.3732L29.7169 9.81337L30.4031 10.0963L31.6176 9.36731L33.3833 11.1324L32.6542 12.3463L32.9333 13.0326L34.3125 13.3768V15.8732Z" fill="#ED1616"/>
<path d="M15.75 12.9375H16.875V14.0625H15.75V12.9375Z" fill="#ED1616"/>
<path d="M20.25 2.8125H21.375V3.9375H20.25V2.8125Z" fill="#ED1616"/>
<path d="M22.5 2.8125H31.5V3.9375H22.5V2.8125Z" fill="#ED1616"/>
<path d="M20.25 5.0625H31.5V6.1875H20.25V5.0625Z" fill="#ED1616"/>
<path d="M20.25 7.3125H21.375V8.4375H20.25V7.3125Z" fill="#ED1616"/>
<path d="M22.5 7.3125H23.625V8.4375H22.5V7.3125Z" fill="#ED1616"/>
<path d="M2.8125 18.5625H3.9375V19.6875H2.8125V18.5625Z" fill="#ED1616"/>
<path d="M2.8125 16.3125H3.9375V17.4375H2.8125V16.3125Z" fill="#ED1616"/>
<path d="M2.8125 20.8125H3.9375V21.9375H2.8125V20.8125Z" fill="#ED1616"/>
</svg>
